<?xml version="1.0" encoding="utf-8"?>
<!-- Generator: Adobe Illustrator 13.0.1, SVG Export Plug-In . SVG Version: 6.00 Build 14948)  -->
<!DOCTYPE svg PUBLIC "-//W3C//DTD SVG 1.1//EN" "http://www.w3.org/Graphics/SVG/1.1/DTD/svg11.dtd">
<svg version="1.1" id="_0.G-OPHI--------X" xmlns="http://www.w3.org/2000/svg" xmlns:xlink="http://www.w3.org/1999/xlink" x="0px"
	 y="0px" width="400px" height="400px" viewBox="0 0 400 400" enable-background="new 0 0 400 400" xml:space="preserve">
<polygon points="385.08,200.792 385.08,190.24 349.99,190.24 343.609,200.792 "/>
<polygon points="15,190.24 15,200.792 55.044,200.792 49.015,190.24 "/>
<g>
	<g>
		<path d="M190.991,51.978l-20.311,17.79l6.588,7.522l20.088-17.595c0.001-0.001,0.003-0.002,0.004-0.003l0.008-0.008
			c0.001-0.001,0.002-0.001,0.003-0.002l0.088-0.078c0.002-0.002,0.004-0.003,0.006-0.005l0.017-0.014c0,0,0.001-0.001,0.001-0.001
			l0.007-0.006c0.001-0.001,0.002-0.002,0.003-0.003l0.003-0.002c0.003-0.002,0.005-0.004,0.008-0.007l0.04-0.035
			c0.001-0.001,0.003-0.002,0.004-0.004l0.029-0.025c-0.001,0.001-0.001,0,0,0l0,0l0,0L190.991,51.978L190.991,51.978z
			 M150.369,87.557l-20.311,17.79l6.589,7.522c0,0,5.856-5.129,11.279-9.879l9.032-7.91L150.369,87.557L150.369,87.557z
			 M109.748,123.136l-20.311,17.79l6.589,7.522l20.311-17.79L109.748,123.136L109.748,123.136z M69.125,158.715l-20.311,17.79
			l6.589,7.522l20.311-17.79L69.125,158.715L69.125,158.715z M57.806,205.626l-8.683,4.961l13.394,23.444l8.683-4.961
			L57.806,205.626L57.806,205.626z M101.892,251.355l-10.864,10.863l0,0c0,0-0.024-0.038-0.069-0.109l-0.001-0.003
			c-0.017-0.026-0.037-0.057-0.059-0.093l-0.001-0.001c-0.006-0.009-0.011-0.018-0.017-0.027h0
			c-0.001-0.002-0.002-0.004-0.003-0.006l-0.005-0.008c-0.005-0.009-0.011-0.017-0.017-0.025l0-0.001
			c-0.001-0.003-0.003-0.005-0.005-0.008l-0.003-0.005c-0.003-0.006-0.007-0.012-0.01-0.017l-0.002-0.004
			c-0.002-0.003-0.003-0.006-0.005-0.009l-0.001-0.001c-0.001-0.002-0.002-0.005-0.004-0.007l-0.01-0.016
			c-0.001-0.003-0.003-0.006-0.005-0.008l-0.004-0.007c-0.001-0.002-0.002-0.004-0.003-0.006l-0.004-0.005
			c0-0.002-0.001-0.003-0.002-0.004l-5.991-9.463l-8.449,5.349l6.224,9.831l6.684,10.559l8.836-8.836l10.864-10.864L101.892,251.355
			L101.892,251.355z M131.828,221.42l-10.844,10.844l7.071,7.071l5.521-5.521l3.958-2.22c0,0-0.241-0.431-0.625-1.113l0,0
			L131.828,221.42L131.828,221.42z M150.743,255.143l-8.722,4.892l13.208,23.549l8.722-4.893c0,0-0.799-1.424-2.003-3.572
			l-0.008-0.014c-0.005-0.009-0.01-0.017-0.015-0.025l-0.229-0.408c-0.001-0.002-0.001-0.002-0.001-0.003L150.743,255.143
			L150.743,255.143z M177.16,302.239l-8.722,4.892l13.208,23.549l8.722-4.892l-10.922-19.474c-0.002-0.003-0.004-0.007-0.006-0.011
			l-0.011-0.02c-0.027-0.048-0.054-0.097-0.081-0.144l-0.013-0.023c-0.033-0.06-0.066-0.118-0.099-0.177l-0.024-0.043
			C177.98,303.701,177.16,302.239,177.16,302.239L177.16,302.239z M217.595,306.582c0,0-4.146,6.987-7.891,13.296l-5.889,9.923
			l8.6,5.104l13.779-23.22L217.595,306.582L217.595,306.582z M245.152,260.143c0,0-6.163,10.386-10.246,17.266l-0.017,0.029
			c-0.002,0.003-0.004,0.005-0.006,0.009l-0.028,0.048c-0.018,0.029-0.034,0.058-0.052,0.087l-3.431,5.781l8.6,5.104l13.779-23.22
			L245.152,260.143L245.152,260.143z M268.131,221.42l-9.2,15.504l8.6,5.103l7.368-12.416L268.131,221.42L268.131,221.42z
			 M291.044,249.15l-7.709,6.37l13.467,16.298l0.052,0.063l8.985,10.813l7.267-12.035l3-4.969l-8.561-5.169l-2.989,4.95
			c0,0.001-0.001,0.002-0.001,0.003l0,0c-0.001,0-0.001,0.001-0.002,0.002l-0.001,0.003c-0.002,0.002-0.003,0.004-0.004,0.005
			l-0.003,0.006l0,0c0,0-0.001-0.001-0.002-0.002l0,0c-0.001-0.001-0.002-0.003-0.004-0.005l0,0
			c-0.001-0.001-0.003-0.004-0.005-0.006l0,0c-0.002-0.003-0.004-0.005-0.007-0.008l0,0c-0.002-0.003-0.004-0.005-0.006-0.008l0,0
			c-0.002-0.002-0.004-0.004-0.006-0.006l0,0c-0.001-0.002-0.003-0.004-0.004-0.005l0,0c0-0.001-0.001-0.002-0.001-0.002l0,0l0,0
			L291.044,249.15L291.044,249.15z M335.457,214.294l-6.935,11.484c-3.503,5.802-7.021,11.63-7.021,11.63l8.561,5.168l13.956-23.113
			L335.457,214.294L335.457,214.294z M337.361,165.727l-6.494,7.604l19.354,16.528l0,0l0,0l0,0l0,0l0,0l-0.001,0.002h-0.001
			l-0.004,0.007c0,0.001-0.001,0.002-0.002,0.003l-0.024,0.04c0,0-0.001,0.001-0.001,0.002l-0.003,0.005
			c-0.001,0.002-0.003,0.004-0.004,0.007l-0.063,0.104c-0.001,0.001-0.002,0.003-0.003,0.004l-0.056,0.091
			c-0.001,0.002-0.002,0.004-0.003,0.005l-0.018,0.029v0l-0.049,0.081l0,0l0,0l-0.001,0.002c0,0-0.001,0-0.001,0.001l-0.569,0.941
			l8.558,5.175l0.57-0.944l0.229-0.378l4.396-7.267l-6.458-5.515L337.361,165.727L337.361,165.727z M296.298,130.658l-6.494,7.604
			l20.532,17.534l6.494-7.604L296.298,130.658L296.298,130.658z M255.235,95.589l-6.494,7.604l6.941,5.929
			c0.007,0.006,0.015,0.012,0.021,0.018l0.089,0.076c0.011,0.01,0.021,0.019,0.033,0.028l0.021,0.018
			c5.933,5.067,13.426,11.466,13.426,11.466l6.494-7.604L255.235,95.589L255.235,95.589z M214.172,60.52l-6.494,7.604
			c0,0,6.38,5.448,12.026,10.271l0.01,0.008c0.063,0.055,0.128,0.11,0.191,0.164l8.304,7.092l6.494-7.604L214.172,60.52
			L214.172,60.52z"/>
	</g>
</g>
</svg>
