<?xml version="1.0"?>
<!DOCTYPE svg PUBLIC "-//W3C//DTD SVG 1.1//EN" "http://www.w3.org/Graphics/SVG/1.1/DTD/svg11.dtd" >
<!-- SVG content generated using Symbology Configuration Management System (SCMS) -->
<!-- Systematic Software Engineering Ltd. - www.systematic.co.uk - do not remove  -->
<svg id="G*OPHI----****X" width="400px" height="400px" viewBox="0 0 400 400">
    <g>
        <svg viewBox="0 0 400 400" id="_0.G-OPHI--------X" width="400px" height="400px">
            <g transform="translate(15 60) scale(8 8)">
                <path
                    d="M4.559 17.6 L0 17.6 L0 16.28 L3.959 16.28 zM37.199 23.961 L31.318 17.539 L22.619      32.301 L14.34 17.539 L8.1 23.539 L3.959 16.291 L22.559 0 L41.639 16.295 L35.879      25.82 zM37.199 23.959 L35.939 25.76 L31.378 20.24 L22.619 35 L14.34 20.24      L9.24 25.34 L8.1 23.539 L14.34 17.539 L22.619 32.301 L31.318 17.539 zM41.641      16.279 L46.26 16.279 L46.26 17.599 L40.92 17.599 z"></path>
            </g>
        </svg>

    </g>
</svg>