<?xml version="1.0" encoding="UTF-8" standalone="no"?>
<!--
Copyright (C) 2012 United States Government as represented by the Administrator of the
National Aeronautics and Space Administration.
All Rights Reserved.
-->

<!--
MIL-STD-2525 tactical symbol icon image. During icon composition this image is multiplied by the desired frame color 
(e.g. black), then drawn on top of the frame and fill.
-->

<svg
   xmlns:dc="http://purl.org/dc/elements/1.1/"
   xmlns:cc="http://creativecommons.org/ns#"
   xmlns:rdf="http://www.w3.org/1999/02/22-rdf-syntax-ns#"
   xmlns:svg="http://www.w3.org/2000/svg"
   xmlns="http://www.w3.org/2000/svg"
   xmlns:sodipodi="http://sodipodi.sourceforge.net/DTD/sodipodi-0.dtd"
   xmlns:inkscape="http://www.inkscape.org/namespaces/inkscape"
   height="400px"
   viewBox="0 0 400 400"
   width="400px"
   id="svg2"
   version="1.1"
   inkscape:version="0.48.2 r9819"
   sodipodi:docname="sugaucfhx------.svg">
  <metadata
     id="metadata12">
    <rdf:RDF>
      <cc:Work
         rdf:about="">
        <dc:format>image/svg+xml</dc:format>
        <dc:type
           rdf:resource="http://purl.org/dc/dcmitype/StillImage" />
      </cc:Work>
    </rdf:RDF>
  </metadata>
  <defs
     id="defs10" />
  <sodipodi:namedview
     pagecolor="#ffffff"
     bordercolor="#666666"
     borderopacity="1"
     objecttolerance="10"
     gridtolerance="10"
     guidetolerance="10"
     inkscape:pageopacity="0"
     inkscape:pageshadow="2"
     inkscape:window-width="640"
     inkscape:window-height="480"
     id="namedview8"
     showgrid="false"
     inkscape:zoom="0.59"
     inkscape:cx="200"
     inkscape:cy="200"
     inkscape:window-x="200"
     inkscape:window-y="59"
     inkscape:window-maximized="0"
     inkscape:current-layer="svg2" />
  <path
     style="font-size:medium;font-style:normal;font-variant:normal;font-weight:normal;font-stretch:normal;text-indent:0;text-align:start;text-decoration:none;line-height:normal;letter-spacing:normal;word-spacing:normal;text-transform:none;direction:ltr;block-progression:tb;writing-mode:lr-tb;text-anchor:start;baseline-shift:baseline;color:#000000;fill:#000000;fill-opacity:1;fill-rule:nonzero;stroke:none;stroke-width:6;marker:none;visibility:visible;display:inline;overflow:visible;enable-background:accumulate;font-family:Sans;-inkscape-font-specification:Sans"
     d="m 198,179.09375 -0.15625,0 -0.125,0.0312 -1.8125,0.28125 -0.125,0.0312 -0.15625,0.0312 -1.71875,0.4375 -0.15625,0.0312 -0.125,0.0625 -1.65625,0.59375 -0.15625,0.0625 -0.125,0.0625 -1.5625,0.75 -0.125,0.0625 -0.125,0.0625 -1.5,0.90625 -0.125,0.0937 -0.125,0.0625 -1.375,1.0625 -0.125,0.0625 -0.0937,0.0937 -0.28125,0.28125 4.03125,4.4375 0.28125,-0.25 0.9375,-0.71875 0.0625,-0.0312 1.15625,-0.71875 0.21875,-0.0937 0.0312,-0.0312 1.28125,-0.59375 0.0312,-0.0312 1.125,-0.40625 0.0625,-0.0312 1.34375,-0.34375 0.15625,-0.0312 0.15625,-0.0312 1.1875,-0.1875 0.1875,0 0.125,-0.0312 0.71875,-0.0312 -0.28125,-6 z m 6.5625,5.875 -0.25,0.65625 0.0625,0.0312 0.125,0.0312 0.0937,0.0312 1.125,0.40625 0.0312,0.0312 1.28125,0.59375 0.0312,0.0312 0.21875,0.0937 1.15625,0.71875 0.0625,0.0312 0.9375,0.71875 1.0625,0.9375 0.0937,0.125 0.125,0.0937 0.9375,1.0625 0.625,0.84375 4.8125,-3.59375 -0.8125,-1.0625 -0.0625,-0.125 -0.0937,-0.0937 -1.1875,-1.28125 -0.0937,-0.0937 -0.0937,-0.0937 -1.28125,-1.1875 -0.0937,-0.0937 -0.125,-0.0625 -1.375,-1.0625 -0.125,-0.0625 -0.125,-0.0937 -1.5,-0.90625 -0.125,-0.0625 -0.125,-0.0625 -1.5625,-0.75 -0.125,-0.0625 -0.15625,-0.0625 L 206.375,180 l -0.125,-0.0625 -0.15625,-0.0312 -0.21875,-0.0625 z m -22.96875,4.90625 -0.0625,0.125 -0.0625,0.125 -0.75,1.5625 -0.0625,0.125 -0.0625,0.15625 L 180,193.625 l -0.0625,0.125 -0.0312,0.15625 -0.4375,1.71875 -0.0312,0.15625 -0.0312,0.125 -0.28125,1.8125 -0.0312,0.125 0,0.15625 -0.0937,1.84375 0,0.15625 0,0.15625 0.0937,1.84375 0,0.15625 0.0312,0.125 0.0937,0.6875 5.9375,-0.90625 -0.0625,-0.375 0,-0.125 -0.0312,-0.1875 L 185,200.15625 185,200 l 0,-0.15625 0.0625,-1.21875 0.0312,-0.15625 0,-0.15625 0.1875,-1.1875 0.0312,-0.15625 0.0312,-0.15625 0.34375,-1.34375 0.0312,-0.0625 0.40625,-1.125 0.0312,-0.0312 0.59375,-1.28125 0.0312,-0.0625 0.0937,-0.1875 0.125,-0.1875 -5.125,-3.125 z m 32.78125,5.875 0.28125,1.0625 0.0312,0.15625 0.0312,0.15625 0.1875,1.1875 0,0.15625 0.0312,0.15625 0.0625,1.21875 0,0.15625 0,0.15625 -0.0625,1.21875 -0.0312,0.15625 0,0.15625 -0.1875,1.1875 -0.0312,0.15625 -0.0312,0.15625 -0.34375,1.34375 -0.0312,0.0625 -0.40625,1.125 -0.0312,0.0312 -0.59375,1.28125 -0.0312,0.0312 -0.0937,0.21875 -0.6875,1.125 -0.0625,0.0937 -0.65625,0.8125 4.8125,3.59375 0.8125,-1.03125 0.0625,-0.125 0.0937,-0.125 0.90625,-1.5 0.0625,-0.125 0.0625,-0.125 0.75,-1.5625 0.0625,-0.125 0.0625,-0.15625 L 220,206.375 l 0.0625,-0.125 0.0312,-0.15625 0.4375,-1.71875 0.0312,-0.15625 0.0312,-0.125 0.28125,-1.8125 0.0312,-0.125 0,-0.15625 L 221,200.15625 218,200 l 3,-0.15625 -0.0937,-1.84375 0,-0.15625 -0.0312,-0.125 -0.28125,-1.8125 -0.0312,-0.125 -0.0312,-0.15625 -0.34375,-1.375 z m -33.09375,13.78125 0.1875,0.34375 0.0625,0.125 0.0625,0.125 0.90625,1.5 0.0937,0.125 0.0625,0.125 1.0625,1.375 0.0625,0.125 0.0937,0.0937 1.1875,1.28125 0.0937,0.0937 0.0937,0.0937 1.28125,1.1875 0.0937,0.0937 0.125,0.0625 1.375,1.0625 0.125,0.0625 0.125,0.0937 1.5,0.90625 0.125,0.0625 0.125,0.0625 1.09375,0.53125 2.59375,-5.40625 -0.84375,-0.40625 -0.0312,-0.0312 -0.21875,-0.0937 -1.15625,-0.71875 -0.0625,-0.0312 -0.9375,-0.71875 -1.0625,-0.9375 -0.0937,-0.125 -0.125,-0.0937 -0.9375,-1.0625 -0.71875,-0.9375 -0.0312,-0.0625 -0.71875,-1.15625 -0.125,-0.25 -0.0625,-0.125 z m 25.78125,3.6875 -0.0312,0.0312 -1.28125,0.59375 -0.0312,0.0312 -1.125,0.40625 -0.0625,0.0312 -1.34375,0.34375 -0.15625,0.0312 -0.15625,0.0312 -1.1875,0.1875 -0.15625,0 -0.15625,0.0312 L 200.15625,215 200,215 l -1.59375,-0.0937 -0.28125,6 1.71875,0.0937 0.15625,0 0.15625,0 1.84375,-0.0937 0.15625,0 0.125,-0.0312 1.8125,-0.28125 0.125,-0.0312 0.15625,-0.0312 1.71875,-0.4375 0.15625,-0.0312 0.125,-0.0625 1.65625,-0.59375 0.15625,-0.0625 0.125,-0.0625 1.5625,-0.75 0.125,-0.0625 0.125,-0.0625 1.15625,-0.71875 -3.125,-5.125 z"
     id="ellipse4"
     inkscape:connector-curvature="0" />
  <path
     style="font-size:medium;font-style:normal;font-variant:normal;font-weight:normal;font-stretch:normal;text-indent:0;text-align:start;text-decoration:none;line-height:normal;letter-spacing:normal;word-spacing:normal;text-transform:none;direction:ltr;block-progression:tb;writing-mode:lr-tb;text-anchor:start;baseline-shift:baseline;color:#000000;fill:#ffffff;fill-opacity:1;stroke:none;stroke-width:10;marker:none;visibility:visible;display:inline;overflow:visible;enable-background:accumulate;font-family:Sans;-inkscape-font-specification:Sans"
     d="m 155.8125,172.59375 -0.21875,0 -0.21875,0.0312 -1.96875,0.28125 -0.21875,0.0312 -0.21875,0.0312 -0.3125,0.0937 1.875,8.09375 0.21875,1.65625 0.15625,-0.0312 1.34375,-0.1875 0.0625,0 L 158,182.5 l 1.6875,0.0937 0.0625,0 1.40625,0.21875 0.0937,0 1.3125,0.3125 2.25,-9.75 -1.78125,-0.40625 -0.21875,-0.0312 -0.21875,-0.0312 -1.96875,-0.28125 -0.21875,-0.0312 -0.21875,0 -1.96875,-0.0937 -0.21875,0 -0.21875,0 z m 84,0 -0.21875,0 -0.21875,0.0312 -0.25,0.0312 1.03125,7.5 0.0937,2.4375 1.75,-0.0937 1.6875,0.0937 0.0625,0 1.4375,0.21875 0.0625,0 1.28125,0.3125 0.1875,0.0312 1.34375,0.46875 3.125,-9.5 -1.78125,-0.59375 -0.21875,-0.0625 -0.25,-0.0625 -1.90625,-0.4375 -0.21875,-0.0312 -0.21875,-0.0312 -1.96875,-0.28125 -0.21875,-0.0312 -0.21875,0 -1.96875,-0.0937 -0.21875,0 -0.21875,0 z m -167.78125,0.46875 -0.1875,0 -0.1875,0.0312 -1.71875,0.1875 -0.1875,0.0312 -0.1875,0.0312 -1.34375,0.25 -0.28125,0.0625 -0.25,0.0625 -0.875,0.28125 -0.4375,0.15625 -0.4375,0.21875 -0.21875,0.125 -1,0.53125 -0.65625,0.875 -0.0625,0.125 4.1875,3.09375 0.53125,1.03125 1.0625,3.40625 0.71875,-0.21875 0.53125,-0.125 0.15625,-0.0312 1.21875,-0.125 0.125,0 1.53125,-0.0625 0.15625,0 0.21875,0 1.84375,0.0937 0.0625,0 0.625,0.0625 0.25,0.0312 0.34375,-3.34375 1.03125,-6.5625 -0.09375,0 -0.09375,-0.0312 -0.125,0 -1.21875,-0.125 -0.15625,-0.0312 -0.15625,0 -2.28125,-0.0937 -0.1875,0 -0.1875,0 z m 253.75,9.9375 1.6875,0.0625 0.125,0 1.21875,0.125 0.15625,0.0312 0.53125,0.125 0.71875,0.21875 1.0625,-3.40625 0.53125,-1.03125 4.1875,-3.09375 -0.0625,-0.125 -0.65625,-0.875 -1,-0.53125 -0.21875,-0.125 -0.4375,-0.21875 -0.4375,-0.15625 -0.875,-0.28125 -0.25,-0.0625 -0.28125,-0.0625 -1.34375,-0.25 -0.1875,-0.0312 -0.1875,-0.0312 -1.71875,-0.1875 -0.1875,-0.0312 -0.1875,0 -1.8125,-0.0625 z m -11.65625,-7.71875 -0.1875,0.0625 -0.15625,0.0937 -1.21875,0.59375 -0.1875,0.0937 -0.15625,0.0937 -1.1875,0.6875 -0.1875,0.0937 -0.15625,0.125 -1.15625,0.8125 -0.1875,0.125 -0.15625,0.125 -1.125,0.9375 -0.15625,0.125 -0.15625,0.15625 -1.0625,1.0625 -0.15625,0.15625 -0.15625,0.15625 -1,1.1875 -0.125,0.1875 -0.15625,0.1875 -0.625,0.90625 8.21875,5.6875 0.375,-0.53125 0.0937,-0.0937 0.1875,-0.28125 0.5625,-0.65625 0.125,-0.15625 0.4375,-0.40625 0.78125,-0.65625 1.15625,-0.8125 0.53125,-0.3125 0.125,-0.0625 0.21875,-0.125 0.5625,-0.28125 0.0625,-0.0312 0.15625,-0.0625 0.0937,-0.0625 -0.65625,-1.34375 -3.15625,-7.875 z m -86.96875,1.75 -0.0937,0.0625 -0.125,0.0937 -0.78125,0.59375 -0.125,0.0625 -0.0937,0.0937 -0.78125,0.625 -0.0937,0.0937 -0.0937,0.0937 -0.75,0.65625 -0.0937,0.0937 -0.0937,0.0937 -0.71875,0.71875 -0.0937,0.0937 -0.0937,0.0937 -0.6875,0.78125 -0.0937,0.0937 -0.0937,0.0937 -0.65625,0.8125 -0.0625,0.125 -0.0937,0.0937 -0.625,0.875 -0.0625,0.0937 -0.0625,0.125 -0.59375,0.875 -0.0625,0.125 -0.0625,0.125 -0.5625,0.9375 -0.0625,0.125 -0.0625,0.0937 0,0.0312 4.90625,2.46875 3.90625,2.25 0.125,-0.21875 0,-0.0312 0.28125,-0.46875 0.4375,-0.6875 0.15625,-0.21875 0.46875,-0.65625 0.3125,-0.375 0.5,-0.59375 0.1875,-0.1875 0.34375,-0.34375 0.1875,-0.1875 0.375,-0.34375 0.125,-0.0937 0.0625,-0.0625 0.40625,-0.3125 0.1875,-0.15625 0.625,-0.4375 0.3125,-0.21875 -5.5,-8.34375 z m -142.90625,8.75 0.5,0.375 0.78125,0.65625 0.4375,0.40625 0.125,0.15625 0.5625,0.65625 0.1875,0.25 0.09375,0.125 0.40625,0.5625 0.0625,0.125 0.53125,0.90625 0.03125,0.0937 0.65625,1.40625 9.125,-4.09375 -0.6875,-1.5 -0.09375,-0.21875 -0.09375,-0.1875 -0.84375,-1.46875 -0.09375,-0.1875 -0.125,-0.1875 -0.90625,-1.3125 -0.15625,-0.1875 -0.125,-0.1875 -1,-1.1875 -0.15625,-0.15625 -0.15625,-0.15625 -1.0625,-1.0625 -0.15625,-0.15625 -0.15625,-0.125 -1.125,-0.9375 -0.15625,-0.125 -0.1875,-0.125 -0.5,-0.375 z m 56.90625,-7.21875 -0.0937,0.0937 -0.0937,0.0937 -0.75,0.65625 -0.0937,0.0937 -0.0937,0.0937 -0.71875,0.71875 -0.0937,0.0937 -0.0937,0.0937 -0.6875,0.78125 -0.0937,0.0937 -0.0937,0.0937 -0.65625,0.8125 -0.0625,0.125 -0.0937,0.0937 -0.625,0.875 -0.0625,0.0937 -0.0625,0.125 -0.59375,0.875 -0.0625,0.125 -0.0625,0.125 -0.5625,0.9375 -0.0625,0.125 -0.0625,0.0937 -0.5,1 -0.0625,0.125 -0.0312,0.125 -0.40625,0.875 9.15625,4 0.28125,-0.625 0.125,-0.25 0.25,-0.5 0.125,-0.25 0.28125,-0.46875 0.4375,-0.6875 0.15625,-0.21875 0.46875,-0.65625 0.3125,-0.375 0.5,-0.59375 0.1875,-0.1875 0.34375,-0.34375 0.1875,-0.1875 0.375,-0.34375 0.125,-0.0937 0.0625,-0.0625 0.28125,-0.21875 -6.3125,-7.75 z m 29.6875,6.15625 -1.9375,1.9375 0.0937,0.0937 0.0937,0.0937 0.34375,0.34375 0.1875,0.1875 0.5,0.59375 0.3125,0.375 0.46875,0.65625 0.15625,0.21875 0.4375,0.6875 0.28125,0.46875 0.125,0.25 0.25,0.5 0.125,0.25 0.25,0.5625 0.0312,0.0937 0.0625,0.125 0.21875,0.59375 0,0.0312 0.0625,0.15625 0.0312,0.0625 1.21875,-0.46875 8.25,-2.65625 -0.0312,-0.15625 -0.0625,-0.125 -0.0312,-0.125 -0.40625,-1.09375 -0.0625,-0.125 -0.0312,-0.0937 -0.46875,-1.03125 -0.0312,-0.125 -0.0625,-0.125 -0.5,-1 -0.0625,-0.0937 -0.0625,-0.125 -0.5625,-0.9375 -0.0625,-0.125 -0.0625,-0.125 -0.59375,-0.875 -0.0625,-0.125 -0.0625,-0.0937 -0.625,-0.875 -0.0937,-0.0937 -0.0625,-0.125 -0.65625,-0.8125 -0.0937,-0.0937 -0.0937,-0.0937 -0.6875,-0.78125 -0.0937,-0.0937 -0.0937,-0.0937 -0.71875,-0.71875 -0.0937,-0.0937 -0.0937,-0.0937 -0.0625,-0.0625 z m 84.8125,1.65625 -1.6875,1.375 0.0625,0.0937 0.0937,0.125 0.3125,0.375 0.46875,0.65625 0.15625,0.21875 0.4375,0.6875 0.28125,0.46875 0.125,0.25 0.25,0.5 0.125,0.25 0.25,0.5625 0.0312,0.0937 0.0625,0.125 0.21875,0.59375 0,0.0312 0.0937,0.21875 0.1875,0.625 0.0625,0.25 0.21875,0.75 9.65625,-2.5625 -0.28125,-1 -0.0312,-0.125 -0.0312,-0.125 -0.34375,-1.09375 -0.0625,-0.125 -0.0312,-0.125 -0.40625,-1.09375 -0.0625,-0.125 -0.0312,-0.0937 -0.46875,-1.03125 -0.0312,-0.125 -0.0625,-0.125 -0.5,-1 -0.0625,-0.0937 -0.0625,-0.125 -0.5625,-0.9375 -0.0625,-0.125 -0.0625,-0.125 -0.59375,-0.875 -0.0625,-0.125 -0.0625,-0.0937 -0.625,-0.875 -0.0937,-0.0937 -0.0625,-0.125 -0.65625,-0.8125 -0.0937,-0.0937 -0.0937,-0.0937 -0.0937,-0.0937 z m 44.4375,10.6875 0,0.15625 0,0.1875 -0.0937,2.4375 0,0.0312 -0.0312,1.15625 0,0.21875 -0.0625,0.875 -0.15625,1.25 0.0312,0 -0.1875,0.9375 0,0.0312 0,0.0312 0.625,0.0937 9.15625,1.96875 0.0312,-0.1875 0.0312,-0.125 0.0312,-0.125 0.1875,-1.21875 0.0312,-0.125 0,-0.125 0.15625,-1.28125 0.0312,-0.0937 0,-0.125 0.0937,-1.3125 0,-0.125 0,-0.125 0.0312,-1.3125 0,-0.0312 0.0625,-2.0625 0.1875,-2.125 -9.9375,-1 z m -84.0625,1.21875 0,0.125 0,0.0937 -0.0312,1.375 -0.0312,1.1875 0,0.21875 -0.0625,0.875 -0.125,1.0625 0,0.0625 -0.0312,0.1875 -0.125,0.75 -0.1875,0.96875 -0.0312,0.1875 -0.0312,0.0625 -0.25,0.90625 9.6875,2.5625 0.28125,-1.15625 0.0312,-0.0937 0.0312,-0.125 0.25,-1.21875 0.0312,-0.125 0.0312,-0.125 0.1875,-1.25 0.0312,-0.0937 0,-0.125 0.15625,-1.3125 0.0312,-0.0937 0,-0.125 0.0937,-1.34375 0,-0.125 0,-0.0937 0.0312,-1.375 0.0312,-1.1875 0,-0.21875 0.0625,-0.65625 -10,-0.65625 z M 89.96875,199.375 90,200.125 l 0,0.0312 0.03125,1.34375 0,0.0937 0,0.125 0.09375,1.34375 0,0.125 0.03125,0.0937 0.15625,1.3125 0,0.125 0.03125,0.0937 0.1875,1.25 0.03125,0.125 0.03125,0.125 0.25,1.21875 0.03125,0.125 0.03125,0.0937 0.3125,1.1875 0.03125,0.125 0.03125,0.125 0.34375,1.09375 0.0625,0.125 0.03125,0.125 0.125,0.28125 9.34375,-3.53125 -0.0312,-0.0312 -0.0312,-0.125 -0.0625,-0.125 -0.1875,-0.625 -0.0625,-0.25 -0.1875,-0.6875 0,-0.0625 -0.0625,-0.1875 -0.1875,-0.96875 -0.125,-0.75 -0.0312,-0.1875 0,-0.0625 -0.125,-1.0625 -0.0625,-0.875 0,-0.21875 -0.0312,-1.1875 0,-0.0312 -0.03125,-0.78125 z m 42.03125,0.5 -0.0312,1.1875 0,0.21875 -0.0625,0.875 -0.125,1.0625 0,0.0625 -0.0312,0.1875 -0.125,0.75 -0.1875,0.96875 -0.0625,0.1875 0,0.0625 -0.1875,0.6875 -0.0625,0.25 -0.1875,0.625 -0.0625,0.1875 -0.0312,0.0625 -0.21875,0.53125 9.34375,3.53125 0.3125,-0.78125 0.0312,-0.125 0.0625,-0.125 0.34375,-1.09375 0.0312,-0.125 0.0312,-0.125 0.3125,-1.1875 0.0312,-0.0937 0.0312,-0.125 0.25,-1.21875 0.0312,-0.125 0.0312,-0.125 0.1875,-1.25 0.0312,-0.0937 0,-0.125 0.15625,-1.3125 0.0312,-0.0937 0,-0.125 0.0937,-1.34375 0,-0.125 0,-0.0937 0.0312,-1.375 0,-0.25 -10,-0.21875 z m 49.71875,1.34375 -7.6875,0.15625 0,0.125 0,0.0937 0,0.125 0.0937,1.34375 0,0.125 0.0312,0.0937 0.15625,1.3125 0,0.125 0.0312,0.0937 0.1875,1.25 0.0312,0.125 0.0312,0.125 0.25,1.21875 0.0312,0.125 0.0312,0.0937 0.3125,1.1875 0.0312,0.125 0.0312,0.125 0.34375,1.09375 0.0625,0.125 0.0312,0.125 0.40625,1.09375 0.0625,0.125 0.0312,0.0937 0.46875,1.03125 0.0312,0.125 0.0625,0.125 0.0312,0.0625 5.59375,-2.8125 3.4375,-1.5 -0.0937,-0.1875 -0.0312,-0.0625 -0.25,-0.5625 -0.0312,-0.0937 -0.0625,-0.125 -0.21875,-0.59375 0,-0.0312 -0.0937,-0.21875 -0.1875,-0.625 -0.0625,-0.25 -0.1875,-0.6875 0,-0.0625 -0.0625,-0.1875 -0.1875,-0.96875 -0.125,-0.75 -0.0312,-0.1875 0,-0.0625 -0.125,-1.0625 -0.0625,-0.875 0,-0.125 0,-0.0937 z m 76.5,2.625 0.0937,0.75 0,0.125 0.0312,0.0937 0.1875,1.25 0.0312,0.125 0.0312,0.125 0.25,1.21875 0.0312,0.0937 0.0312,0.125 0.3125,1.1875 0.0312,0.0937 0.0312,0.125 0.34375,1.125 0.0625,0.125 0.0312,0.125 0.40625,1.0625 0.0625,0.125 0.0312,0.125 0.46875,1.03125 0.0625,0.125 0.0312,0.125 0.5,0.96875 0.0625,0.125 0.0625,0.125 0.53125,0.875 8.65625,-5 -0.375,-0.625 -0.125,-0.25 -0.25,-0.5 -0.125,-0.25 -0.25,-0.53125 -0.0937,-0.25 -0.21875,-0.59375 -0.0937,-0.25 -0.1875,-0.625 -0.0625,-0.25 -0.1875,-0.65625 -0.0312,-0.0625 -0.0312,-0.1875 -0.1875,-0.96875 -0.125,-0.78125 0,-0.0937 -0.0312,-0.125 -0.0625,-0.5 z m 37.90625,8 -0.5,0.59375 -0.1875,0.1875 -0.34375,0.34375 -0.1875,0.1875 -0.375,0.3125 -0.59375,0.5 -0.1875,0.15625 -0.40625,0.28125 -0.53125,0.375 -0.1875,0.125 -0.125,0.0625 -1.15625,0.625 -0.71875,0.3125 4,9.15625 0.90625,-0.375 0.21875,-0.0937 0.21875,-0.125 1.71875,-0.96875 0.15625,-0.0937 0.15625,-0.0937 0.84375,-0.53125 0.0937,-0.0937 0.0937,-0.0625 0.8125,-0.59375 0.125,-0.0625 0.0937,-0.0937 0.78125,-0.625 0.0937,-0.0937 0.0937,-0.0625 0.75,-0.6875 0.0937,-0.0937 0.0937,-0.0937 0.71875,-0.71875 0.0937,-0.0937 0.0937,-0.0937 0.6875,-0.75 0.0937,-0.0937 0.0625,-0.125 0.625,-0.75 -7.75,-6.3125 z m -85.03125,1.3125 -0.1875,0.1875 -0.375,0.34375 -0.125,0.0937 -0.0625,0.0625 -0.40625,0.3125 -0.1875,0.15625 -0.625,0.4375 -0.3125,0.21875 -0.125,0.0937 -0.1875,0.0937 -1.1875,0.65625 -1.46875,0.625 -0.125,0.0625 -0.625,0.1875 3.125,9.5 1.0625,-0.34375 0.21875,-0.0625 0.21875,-0.0937 1.8125,-0.8125 0.21875,-0.0937 0.21875,-0.125 1.71875,-0.9375 0.15625,-0.0937 L 214,223.5 l 0.84375,-0.53125 0.0937,-0.0625 0.125,-0.0937 0.78125,-0.59375 0.125,-0.0625 0.0937,-0.0937 0.78125,-0.625 0.0937,-0.0937 0.0937,-0.0937 0.75,-0.65625 0.0937,-0.0937 0.0937,-0.0937 0.65625,-0.625 -7.09375,-7.0625 z M 98.65625,221 l 0.3125,0.25 0.09375,0.0937 0.09375,0.0937 0.78125,0.625 0.09375,0.0937 0.125,0.0625 0.78125,0.59375 0.125,0.0937 0.0937,0.0625 L 102,223.5 l 0.15625,0.125 0.15625,0.0937 1.71875,0.9375 0.21875,0.125 0.21875,0.0937 1.8125,0.8125 0.21875,0.0937 0.21875,0.0625 1.875,0.625 0.21875,0.0625 0.25,0.0625 0.625,0.125 2.21875,-9.75 -0.46875,-0.0937 -0.15625,-0.0312 -1,-0.34375 -0.0937,-0.0312 -1.5,-0.65625 -1.1875,-0.65625 -0.1875,-0.0937 -0.125,-0.0937 -0.3125,-0.21875 -0.625,-0.4375 -0.1875,-0.15625 -0.40625,-0.3125 -0.0312,-0.0312 -0.15625,-0.125 -0.0937,-0.125 z m 27.28125,-6.84375 -0.1875,0.15625 -0.625,0.4375 -0.3125,0.21875 -0.125,0.0937 -0.1875,0.0937 -1.1875,0.65625 -1.5,0.65625 -0.0937,0.0312 -1,0.34375 -0.1875,0.0312 -0.9375,0.21875 2.21875,9.75 1.125,-0.25 0.25,-0.0625 0.21875,-0.0625 1.875,-0.625 0.21875,-0.0625 0.21875,-0.0937 1.8125,-0.8125 0.21875,-0.0937 0.21875,-0.125 1.71875,-0.9375 0.15625,-0.0937 L 130,223.5 l 0.84375,-0.53125 0.0937,-0.0625 0.125,-0.0937 0.78125,-0.59375 0.125,-0.0625 0.0937,-0.0937 0.6875,-0.5625 -6.3125,-7.75 z m 58.6875,8.4375 0.3125,0.21875 0.125,0.0937 0.0937,0.0625 L 186,223.5 l 0.15625,0.125 0.15625,0.0937 1.71875,0.9375 0.21875,0.125 0.21875,0.0937 1.8125,0.8125 0.21875,0.0937 0.21875,0.0625 1.875,0.625 0.21875,0.0625 0.25,0.0625 1.90625,0.4375 0.21875,0.0312 0.21875,0.0312 0.71875,0.0937 1.3125,-9.90625 -0.625,-0.0937 -0.0625,0 -1.28125,-0.3125 -0.1875,-0.0312 -1,-0.34375 -0.0937,-0.0312 -1.5,-0.65625 -1.1875,-0.65625 -0.1875,-0.0937 -0.125,-0.0937 -0.3125,-0.21875 -0.3125,-0.21875 z m 86.34375,1.375 1.09375,0.625 0.21875,0.0937 0.21875,0.0937 1.8125,0.78125 0.21875,0.0937 0.21875,0.0937 1.875,0.59375 0.21875,0.0625 0.25,0.0625 1.90625,0.40625 0.21875,0.0625 0.21875,0.0312 1.96875,0.25 0.21875,0.0312 0.21875,0 0.84375,0.0312 0.40625,-10 -0.84375,-0.0312 -0.0312,0 -1.4375,-0.21875 -0.0625,0 -1.3125,-0.3125 -0.15625,-0.0312 -1,-0.3125 -0.15625,-0.0625 -1.5,-0.65625 -0.15625,-0.0625 -0.65625,-0.375 z"
     id="path6"
     inkscape:connector-curvature="0" />
</svg>
