<?xml version="1.0"?>
<!DOCTYPE svg PUBLIC "-//W3C//DTD SVG 1.1//EN" "http://www.w3.org/Graphics/SVG/1.1/DTD/svg11.dtd" >
<!-- SVG content generated using Symbology Configuration Management System (SCMS) -->
<!-- Systematic Software Engineering Ltd. - www.systematic.co.uk - do not remove  -->
<svg id="WO-DHHDK--P----" width="400px" height="400px" viewBox="0 0 400 400">
    <g>
        <svg viewBox="0 0 400 400" id="_0.WO-DHHDK----A--" width="400px" height="400px">
            <path d="M191.5 254.5 C214.472 233.825 240.514 214.955 271.5 208.5 C308.558 200.78 353.408
			216.376 379.5 180.5" transform="matrix(1 0 0 1 0 0)"
                  style="fill:none;stroke:rgb(128,128,128);stroke-width:10"></path>
            <path d="M267.278 209.833 C223.308 202.505 186.762 174.376 161.833 133.833" transform="matrix(1 0 0 1 0 0)"
                  style="fill:none;stroke:rgb(128,128,128);stroke-width:10"></path>
            <path d="M202.5 180.5 C152.442 175.494 100.483 218.51 60.5 242.5" transform="matrix(1 0 0 1 0 0)"
                  style="fill:none;stroke:rgb(128,128,128);stroke-width:10"></path>
            <path d="M140.833 194.389 C88.7849 194.389 52.9086 169.723 5.5 155.5" transform="matrix(1 0 0 1 0 0)"
                  style="fill:none;stroke:rgb(128,128,128);stroke-width:10"></path>
            <path d="M51.5 174.5 C51.5 174.5 29 190.25 21.5 195.5" transform="matrix(1 0 0 1 0 0)"
                  style="fill:none;stroke:rgb(128,128,128);stroke-width:10"></path>
        </svg>

    </g>
</svg>