<?xml version="1.0"?>
<!DOCTYPE svg PUBLIC "-//W3C//DTD SVG 1.1//EN" "http://www.w3.org/Graphics/SVG/1.1/DTD/svg11.dtd" >
<!-- SVG content generated using Symbology Configuration Management System (SCMS) -->
<!-- Systematic Software Engineering Ltd. - www.systematic.co.uk - do not remove  -->
<svg id="WAS-WST-NPP----" width="400px" height="400px" viewBox="0 0 400 400">
    <g>
        <svg viewBox="0 0 400 400" id="_0.WAS-WST-NPP----" width="400px" height="400px">
            <line x1="150" y1="100" x2="150" y2="300" transform="matrix(1 0 0 1 0 0)"
                  style="stroke:rgb(198,16,33);stroke-width:10"></line>
            <polyline points="125,100 275,100 217,200 275,290" transform="matrix(1 0 0 1 0 0)"
                      style="fill:none;stroke:rgb(198,16,33);stroke-width:10"></polyline>
            <polyline points="275,250 280,300 240,275" transform="matrix(1 0 0 1 0 0)"
                      style="fill:none;stroke:rgb(198,16,33);stroke-width:10"></polyline>
            <path d="M100 75 C40 225 100 330 100 330" transform="matrix(1 0 0 1 0 0)"
                  style="fill:none;stroke:rgb(198,16,33);stroke-width:5"></path>
            <path d="M300 75 C360 225 300 330 300 330" transform="matrix(1 0 0 1 0 0)"
                  style="fill:none;stroke:rgb(198,16,33);stroke-width:5"></path>
        </svg>

    </g>
</svg>