<?xml version="1.0"?>
<!DOCTYPE svg PUBLIC "-//W3C//DTD SVG 1.1//EN" "http://www.w3.org/Graphics/SVG/1.1/DTD/svg11.dtd" >
<!-- SVG content generated using Symbology Configuration Management System (SCMS) -->
<!-- Systematic Software Engineering Ltd. - www.systematic.co.uk - do not remove  -->
<svg id="WAS-WSVE--P----" width="400px" height="400px" viewBox="0 0 400 400">
    <g>
        <svg viewBox="0 0 400 400" id="_0.WAS-WSVE--P----" width="400px" height="400px">
            <circle cx="200" cy="300" r="25" transform="matrix(1 0 0 1 0 0)"
                    style="fill:rgb(0,0,0);stroke:rgb(0,0,0);stroke-width:5"></circle>
            <polyline points="150,300 75,300 125,150 275,150 325,300 250,300" transform="matrix(1 0 0 1 0 0)"
                      style="fill:none;stroke:rgb(0,0,0);stroke-width:10"></polyline>
            <line x1="200" y1="45" x2="200" y2="125"
                  transform="matrix(1 0 0 1 0 0) translate(200 87.5) scale(1 1) translate(-200 -87.5)"
                  style="stroke:rgb(0,0,0);stroke-width:10"></line>
            <line x1="250" y1="125" x2="300" y2="50" transform="matrix(1 0 0 1 0 0)"
                  style="stroke:rgb(0,0,0);stroke-width:10"></line>
            <line x1="149" y1="125" x2="100" y2="50" transform="matrix(1 0 0 1 0 0)"
                  style="stroke:rgb(0,0,0);stroke-width:10"></line>
        </svg>

    </g>
</svg>