<?xml version="1.0"?>
<!DOCTYPE svg PUBLIC "-//W3C//DTD SVG 1.1//EN" "http://www.w3.org/Graphics/SVG/1.1/DTD/svg11.dtd" >
<!-- SVG content generated using Symbology Configuration Management System (SCMS) -->
<!-- Systematic Software Engineering Ltd. - www.systematic.co.uk - do not remove  -->
<svg id="WAS-WSD-HIP----" width="400px" height="400px" viewBox="0 0 400 400">
    <g transform="translate(-17 -74)">
        <svg viewBox="0 0 400 400" id="_0.WAS-WSD--------" width="400px" height="400px">
            <circle cx="220" cy="127" r="25" transform="matrix(1 0 0 1 0 0)"
                    style="fill:rgb(0,128,0);stroke:rgb(0,128,0);stroke-width:1"></circle>
            <path d="M220 152.5 C222.179 164.929 199 188.5 199 188.5 C231.107 188.679 244.902 155.006
			244.857 130.071" transform="matrix(1 0 0 1 0 0)"
                  style="fill:rgb(0,128,0);stroke:rgb(0,128,0);stroke-width:1"></path>
        </svg>

    </g>
    <g transform="translate(-17 49) translate(-1 7)">
        <svg viewBox="0 0 400 400" id="_1.WAS-WSD--------" width="400px" height="400px">
            <circle cx="220" cy="127" r="25" transform="matrix(1 0 0 1 0 0)"
                    style="fill:rgb(0,128,0);stroke:rgb(0,128,0);stroke-width:1"></circle>
            <path d="M220 152.5 C222.179 164.929 199 188.5 199 188.5 C231.107 188.679 244.902 155.006
			244.857 130.071" transform="matrix(1 0 0 1 0 0)"
                  style="fill:rgb(0,128,0);stroke:rgb(0,128,0);stroke-width:1"></path>
        </svg>

    </g>
    <g transform="translate(-17 182)">
        <svg viewBox="0 0 400 400" id="_2.WAS-WSD--------" width="400px" height="400px">
            <circle cx="220" cy="127" r="25" transform="matrix(1 0 0 1 0 0)"
                    style="fill:rgb(0,128,0);stroke:rgb(0,128,0);stroke-width:1"></circle>
            <path d="M220 152.5 C222.179 164.929 199 188.5 199 188.5 C231.107 188.679 244.902 155.006
			244.857 130.071" transform="matrix(1 0 0 1 0 0)"
                  style="fill:rgb(0,128,0);stroke:rgb(0,128,0);stroke-width:1"></path>
        </svg>

    </g>
</svg>