<?xml version="1.0"?>
<!DOCTYPE svg PUBLIC "-//W3C//DTD SVG 1.1//EN" "http://www.w3.org/Graphics/SVG/1.1/DTD/svg11.dtd" >
<!-- SVG content generated using Symbology Configuration Management System (SCMS) -->
<!-- Systematic Software Engineering Ltd. - www.systematic.co.uk - do not remove  -->
<svg id="WAS-WSS-MCP----" width="400px" height="400px" viewBox="0 0 400 400">
    <g transform="translate(75 75)">
        <svg viewBox="0 0 400 400" id="_0.WAS-WSS-LCP----" width="400px" height="400px">
            <line x1="150" y1="200" x2="250" y2="200" transform="matrix(1 0 0 1 0 0)"
                  style="fill:none;stroke:rgb(0,128,0);stroke-width:10"></line>
            <line x1="167" y1="150" x2="233" y2="250" transform="matrix(1 0 0 1 0 0)"
                  style="fill:none;stroke:rgb(0,128,0);stroke-width:10"></line>
            <line x1="233" y1="150" x2="167" y2="250" transform="matrix(1 0 0 1 0 0)"
                  style="fill:none;stroke:rgb(0,128,0);stroke-width:10"></line>
        </svg>

    </g>
    <g transform="translate(-75 75)">
        <svg viewBox="0 0 400 400" id="_1.WAS-WSS-LCP----" width="400px" height="400px">
            <line x1="150" y1="200" x2="250" y2="200" transform="matrix(1 0 0 1 0 0)"
                  style="fill:none;stroke:rgb(0,128,0);stroke-width:10"></line>
            <line x1="167" y1="150" x2="233" y2="250" transform="matrix(1 0 0 1 0 0)"
                  style="fill:none;stroke:rgb(0,128,0);stroke-width:10"></line>
            <line x1="233" y1="150" x2="167" y2="250" transform="matrix(1 0 0 1 0 0)"
                  style="fill:none;stroke:rgb(0,128,0);stroke-width:10"></line>
        </svg>

    </g>
    <g transform="translate(0 -75)">
        <svg viewBox="0 0 400 400" id="_2.WAS-WSS-LCP----" width="400px" height="400px">
            <line x1="150" y1="200" x2="250" y2="200" transform="matrix(1 0 0 1 0 0)"
                  style="fill:none;stroke:rgb(0,128,0);stroke-width:10"></line>
            <line x1="167" y1="150" x2="233" y2="250" transform="matrix(1 0 0 1 0 0)"
                  style="fill:none;stroke:rgb(0,128,0);stroke-width:10"></line>
            <line x1="233" y1="150" x2="167" y2="250" transform="matrix(1 0 0 1 0 0)"
                  style="fill:none;stroke:rgb(0,128,0);stroke-width:10"></line>
        </svg>

    </g>
</svg>