<?xml version="1.0"?>
<!DOCTYPE svg PUBLIC "-//W3C//DTD SVG 1.1//EN" "http://www.w3.org/Graphics/SVG/1.1/DTD/svg11.dtd" >
<!-- SVG content generated using Symbology Configuration Management System (SCMS) -->
<!-- Systematic Software Engineering Ltd. - www.systematic.co.uk - do not remove  -->
<svg id="WO-DHPBA----A--" width="400px" height="400px" viewBox="0 0 400 400">
    <g transform="scale(0.3 0.3) translate(467 860)">
        <svg viewBox="0 0 400 400" id="_0.WOS-HPBA--P----" width="400px" height="400px">
            <line x1="200" y1="50" x2="200" y2="350" transform="matrix(1 0 0 1 0 0)"
                  style="fill:none;stroke:rgb(255,0,255);stroke-width:20"></line>
            <line x1="75" y1="125" x2="325" y2="125" transform="matrix(1 0 0 1 0 0)"
                  style="fill:none;stroke:rgb(255,0,255);stroke-width:20"></line>
            <path d="M35 280 C40 330 200 350 200 350 C200 350 360 330 365 280"
                  style="fill:none;stroke:rgb(255,0,255);stroke-width:20"></path>
        </svg>

    </g>
    <g>
        <svg viewBox="0 0 400 400" id="_1.WO-DHPBA----A--" width="400px" height="400px">
            <defs>
                <g id="chevron" transform="scale(0.4 0.4) translate(300 0)">
                    <line x1="165" y1="185" x2="235" y2="185"
                          style="fill:none;stroke:rgb(255,0,255);stroke-width:10"></line>
                    <path d="M174 185 C188 225 212 225 226 185"
                          style="fill:none;stroke:rgb(255,0,255);stroke-width:10"></path>
                </g>
            </defs>
            <g>
                <use xlink:href="#chevron"></use>
            </g>
            <g transform="rotate(15 200 200)">
                <use xlink:href="#chevron"></use>
            </g>
            <g transform="rotate(30 200 200)">
                <use xlink:href="#chevron"></use>
            </g>
            <g transform="rotate(45 200 200)">
                <use xlink:href="#chevron"></use>
            </g>
            <g transform="rotate(60 200 200)">
                <use xlink:href="#chevron"></use>
            </g>
            <g transform="rotate(75 200 200)">
                <use xlink:href="#chevron"></use>
            </g>
            <g transform="rotate(90 200 200)">
                <use xlink:href="#chevron"></use>
            </g>
            <g transform="rotate(105 200 200)">
                <use xlink:href="#chevron"></use>
            </g>
            <g transform="rotate(120 200 200)">
                <use xlink:href="#chevron"></use>
            </g>
            <g transform="rotate(135 200 200)">
                <use xlink:href="#chevron"></use>
            </g>
            <g transform="rotate(150 200 200)">
                <use xlink:href="#chevron"></use>
            </g>
            <g transform="rotate(165 200 200)">
                <use xlink:href="#chevron"></use>
            </g>
            <g transform="rotate(180 200 200)">
                <use xlink:href="#chevron"></use>
            </g>
            <g transform="rotate(195 200 200)">
                <use xlink:href="#chevron"></use>
            </g>
            <g transform="rotate(210 200 200)">
                <use xlink:href="#chevron"></use>
            </g>
            <g transform="rotate(225 200 200)">
                <use xlink:href="#chevron"></use>
            </g>
            <g transform="rotate(240 200 200)">
                <use xlink:href="#chevron"></use>
            </g>
            <g transform="rotate(255 200 200)">
                <use xlink:href="#chevron"></use>
            </g>
            <g transform="rotate(270 200 200)">
                <use xlink:href="#chevron"></use>
            </g>
            <g transform="rotate(285 200 200)">
                <use xlink:href="#chevron"></use>
            </g>
            <g transform="rotate(300 200 200)">
                <use xlink:href="#chevron"></use>
            </g>
            <g transform="rotate(315 200 200)">
                <use xlink:href="#chevron"></use>
            </g>
            <g transform="rotate(330 200 200)">
                <use xlink:href="#chevron"></use>
            </g>
            <g transform="rotate(345 200 200)">
                <use xlink:href="#chevron"></use>
            </g>
        </svg>

    </g>
</svg>