<?xml version="1.0"?>
<!DOCTYPE svg PUBLIC "-//W3C//DTD SVG 1.1//EN" "http://www.w3.org/Graphics/SVG/1.1/DTD/svg11.dtd" >
<!-- SVG content generated using Symbology Configuration Management System (SCMS) -->
<!-- Systematic Software Engineering Ltd. - www.systematic.co.uk - do not remove  -->
<svg id="WOS-HALV--P----" width="400px" height="400px" viewBox="0 0 400 400">
    <g>
        <svg viewBox="0 0 400 400" id="_0.WOS-HALV--P----" width="400px" height="400px">
            <line x1="0" y1="300" x2="400" y2="300" transform="matrix(1 0 0 1 0 0)"
                  style="fill:none;stroke:rgb(0,0,0);stroke-width:20"></line>
            <circle cx="200" cy="300" r="40" transform="matrix(1 0 0 1 0 0)"
                    style="fill:rgb(255,255,255);stroke:rgb(0,0,0);stroke-width:10"></circle>
            <path d="M50 300 L10 200 C35 225 110 225 110 225 L290 225 C290 225 365 225 390 200 L350 300"
                  style="fill:none;stroke:rgb(0,0,0);stroke-width:10"></path>
            <line x1="30" y1="250" x2="100" y2="250" style="fill:none;stroke:rgb(0,0,0);stroke-width:10"></line>
            <line x1="370" y1="250" x2="300" y2="250" style="fill:none;stroke:rgb(0,0,0);stroke-width:10"></line>
            <line x1="200" y1="225" x2="200" y2="50" transform="matrix(1 0 0 1 0 0)"
                  style="fill:none;stroke:rgb(0,0,0);stroke-width:10"></line>
            <line x1="100" y1="225" x2="100" y2="100" transform="matrix(1 0 0 1 0 0)"
                  style="fill:none;stroke:rgb(0,0,0);stroke-width:10"></line>
            <line x1="300" y1="225" x2="300" y2="100" transform="matrix(1 0 0 1 0 0)"
                  style="fill:none;stroke:rgb(0,0,0);stroke-width:10"></line>
            <line x1="180" y1="75" x2="220" y2="75" transform="matrix(1 0 0 1 0 0)"
                  style="fill:none;stroke:rgb(0,0,0);stroke-width:20"></line>
        </svg>

    </g>
</svg>