<?xml version="1.0" encoding="UTF-8" standalone="no"?>
<!--
Copyright (C) 2012 United States Government as represented by the Administrator of the
National Aeronautics and Space Administration.
All Rights Reserved.
-->

<!--
MIL-STD-2525 tactical symbol icon image. During icon composition this image is multiplied by the desired frame color 
(e.g. black), then drawn on top of the frame and fill.
-->

<svg
   xmlns:dc="http://purl.org/dc/elements/1.1/"
   xmlns:cc="http://creativecommons.org/ns#"
   xmlns:rdf="http://www.w3.org/1999/02/22-rdf-syntax-ns#"
   xmlns:svg="http://www.w3.org/2000/svg"
   xmlns="http://www.w3.org/2000/svg"
   xmlns:sodipodi="http://sodipodi.sourceforge.net/DTD/sodipodi-0.dtd"
   xmlns:inkscape="http://www.inkscape.org/namespaces/inkscape"
   height="400px"
   viewBox="0 0 400 400"
   width="400px"
   id="svg2"
   version="1.1"
   inkscape:version="0.48.2 r9819"
   sodipodi:docname="eniadd---------.svg">
  <metadata
     id="metadata20">
    <rdf:RDF>
      <cc:Work
         rdf:about="">
        <dc:format>image/svg+xml</dc:format>
        <dc:type
           rdf:resource="http://purl.org/dc/dcmitype/StillImage" />
      </cc:Work>
    </rdf:RDF>
  </metadata>
  <defs
     id="defs18" />
  <sodipodi:namedview
     pagecolor="#ffffff"
     bordercolor="#666666"
     borderopacity="1"
     objecttolerance="10"
     gridtolerance="10"
     guidetolerance="10"
     inkscape:pageopacity="0"
     inkscape:pageshadow="2"
     inkscape:window-width="721"
     inkscape:window-height="480"
     id="namedview16"
     showgrid="false"
     inkscape:zoom="0.59"
     inkscape:cx="200"
     inkscape:cy="200"
     inkscape:window-x="0"
     inkscape:window-y="0"
     inkscape:window-maximized="0"
     inkscape:current-layer="g4" />
  <g
     transform="scale(100) translate(0.72 0.81) translate(0.005 -0.04) translate(-0.272 -0.248) translate(0.01 0) translate(0.01 0) translate(0.01 0) translate(0.01 0) translate(0 -0.01) translate(-0.01 0) translate(0 0.01) translate(0.01 0) translate(0 0.01) translate(-0.01 0) translate(0 -0.01)"
     id="g4">
    <g
       transform="scale(1.2)"
       id="g6"
       style="stroke:#ffffff;stroke-opacity:1;fill:none;stroke-width:0.03333333000000000;stroke-miterlimit:4;stroke-dasharray:0.03333333000000000, 0.03333333000000000;stroke-dashoffset:0">
      <polygon
         points="1.61724,0.558059 1.36382,0.891465 1.3219,0.446858 1.21938,0.7565 1.10196,0.574488      1.07028,0.922642 0.8415,0.663122 0.920665,0.959224 0.618791,0.944248 0.616579,0.94878      0.897283,1.15174 0.420205,1.18332 0.835024,1.30427 0.835815,1.31076      0.543693,1.47979 0.54511,1.48424 0.923433,1.43886 0.80185,1.647 1.02469,1.55437      0.944343,1.89686 1.15496,1.6217 1.27063,2.06354 1.27926,2.06369 1.30159,1.6202      1.52698,1.89418 1.4481,1.53294 1.70798,1.67725 1.55027,1.48757      1.93928,1.59901 1.68411,1.36337 2.01337,1.31305 1.6382,1.2095 2.07963,0.985236      1.68128,1.02125 1.84289,0.761118 1.49451,0.949874"
         style="fill:none;stroke:#ffffff;stroke-opacity:1;stroke-width:0.03333333000000000;stroke-miterlimit:4;stroke-dasharray:0.03333333000000000, 0.03333333000000000;stroke-dashoffset:0"
         id="polygon8" />
    </g>
  </g>
  <text
     style="fill:rgb(0,0,0);font-family:Arial;font-size:81;font-weight:bold;text-anchor:middle"
     x="200"
     y="232"
     id="text14">?</text>
</svg>
