<?xml version="1.0"?>
<!DOCTYPE svg PUBLIC "-//W3C//DTD SVG 1.1//EN" "http://www.w3.org/Graphics/SVG/1.1/DTD/svg11.dtd" >
<!-- SVG content generated using Symbology Configuration Management System (SCMS) -->
<!-- Systematic Software Engineering Ltd. - www.systematic.co.uk - do not remove  -->
<svg id="WOS-HHDE--P----" width="400px" height="400px" viewBox="0 0 400 400">
    <g>
        <svg viewBox="0 0 400 400" id="_0.WOS-HHDE--P----" width="400px" height="400px">
            <path d="M48.5 250.5 C82.894 238.451 95.284 148.542 115.611 148.944 C122.266 149.076 127.185
			152.35 128.056 155.833 C137.609 194.048 73.3129 173.981 150 250 C182.894 238.451
			195.284 148.542 215.611 148.944 C222.266 149.076 227.185 152.35 228.056
			155.833 C237.609 194.048 173.313 173.981 250 250 C282.894 238.451 295.284 148.542
			315.611 148.944 C322.266 149.076 327.185 152.35 328.056 155.833 C337.609
			194.048 273.313 173.981 350 250" transform="matrix(1 0 0 1 0 0)"
                  style="fill:none;stroke:rgb(128,128,128);stroke-width:5"></path>
        </svg>

    </g>
</svg>