<?xml version="1.0"?>
<!DOCTYPE svg PUBLIC "-//W3C//DTD SVG 1.1//EN" "http://www.w3.org/Graphics/SVG/1.1/DTD/svg11.dtd" >
<!-- SVG content generated using Symbology Configuration Management System (SCMS) -->
<!-- Systematic Software Engineering Ltd. - www.systematic.co.uk - do not remove  -->
<svg id="WAS-WSBR--P----" width="400px" height="400px" viewBox="0 0 400 400">
    <g transform="translate(-75 -50)">
        <svg viewBox="0 0 400 400" id="_0.WAS-WSFG--P----" width="400px" height="400px">
            <line x1="160" y1="200" x2="240" y2="200"
                  transform="matrix(1 0 0 1 0 0) translate(200 200) scale(1 1) translate(-200 -200)"
                  style="stroke:rgb(255,247,0);stroke-width:20"></line>
        </svg>

    </g>
    <g transform="translate(0 -50)">
        <svg viewBox="0 0 400 400" id="_1.WAS-WSFG--P----" width="400px" height="400px">
            <line x1="160" y1="200" x2="240" y2="200"
                  transform="matrix(1 0 0 1 0 0) translate(200 200) scale(1 1) translate(-200 -200)"
                  style="stroke:rgb(255,247,0);stroke-width:20"></line>
        </svg>

    </g>
    <g transform="translate(0 50)">
        <svg viewBox="0 0 400 400" id="_2.WAS-WSFG--P----" width="400px" height="400px">
            <line x1="160" y1="200" x2="240" y2="200"
                  transform="matrix(1 0 0 1 0 0) translate(200 200) scale(1 1) translate(-200 -200)"
                  style="stroke:rgb(255,247,0);stroke-width:20"></line>
        </svg>

    </g>
    <g transform="translate(-75 50)">
        <svg viewBox="0 0 400 400" id="_3.WAS-WSFG--P----" width="400px" height="400px">
            <line x1="160" y1="200" x2="240" y2="200"
                  transform="matrix(1 0 0 1 0 0) translate(200 200) scale(1 1) translate(-200 -200)"
                  style="stroke:rgb(255,247,0);stroke-width:20"></line>
        </svg>

    </g>
    <g transform="translate(75 50)">
        <svg viewBox="0 0 400 400" id="_4.WAS-WSFG--P----" width="400px" height="400px">
            <line x1="160" y1="200" x2="240" y2="200"
                  transform="matrix(1 0 0 1 0 0) translate(200 200) scale(1 1) translate(-200 -200)"
                  style="stroke:rgb(255,247,0);stroke-width:20"></line>
        </svg>

    </g>
    <g transform="translate(75 -50)">
        <svg viewBox="0 0 400 400" id="_5.WAS-WSFG--P----" width="400px" height="400px">
            <line x1="160" y1="200" x2="240" y2="200"
                  transform="matrix(1 0 0 1 0 0) translate(200 200) scale(1 1) translate(-200 -200)"
                  style="stroke:rgb(255,247,0);stroke-width:20"></line>
        </svg>

    </g>
</svg>