<?xml version="1.0" encoding="utf-8"?>
<!-- Generator: Adobe Illustrator 13.0.1, SVG Export Plug-In . SVG Version: 6.00 Build 14948)  -->
<!DOCTYPE svg PUBLIC "-//W3C//DTD SVG 1.1//EN" "http://www.w3.org/Graphics/SVG/1.1/DTD/svg11.dtd">
<svg version="1.1" id="_0.SFG-U----------" xmlns="http://www.w3.org/2000/svg" xmlns:xlink="http://www.w3.org/1999/xlink" x="0px"
	 y="0px" width="400px" height="400px" viewBox="0 0 400 400" enable-background="new 0 0 400 400" xml:space="preserve">
<path fill="#010101" d="M207.883,187.294l3.016-3.421l2.648,2.374l-3.186,3.613c0.852,1.163,1.52,2.585,1.988,4.278
	c0.471,1.697,0.709,3.495,0.709,5.399c0,4.499-1.232,8.038-3.68,10.631c-2.461,2.559-5.701,3.852-9.73,3.852
	c-3.497,0-6.295-0.793-8.392-2.402l-3.094,3.508l-2.71-2.404l3.259-3.709c-1.849-2.512-2.783-5.783-2.783-9.817
	c0-4.462,1.23-7.984,3.681-10.6c2.454-2.578,5.731-3.872,9.827-3.872C202.822,184.731,205.646,185.58,207.883,187.294z
	 M204.379,191.271c-1.293-1.107-2.92-1.666-4.888-1.666c-2.313,0-4.181,0.809-5.609,2.42c-1.431,1.611-2.136,4.064-2.136,7.314
	c0,2.047,0.293,3.813,0.876,5.274L204.379,191.271z M206.449,194.304l-11.726,13.346c1.312,1.152,2.88,1.76,4.73,1.76
	c2.259,0,4.121-0.826,5.58-2.492c1.451-1.66,2.184-4.139,2.184-7.435C207.217,197.359,206.955,195.656,206.449,194.304z"/>
</svg>
