<?xml version="1.0" encoding="utf-8"?>
<!-- Generator: Adobe Illustrator 13.0.1, SVG Export Plug-In . SVG Version: 6.00 Build 14948)  -->
<!DOCTYPE svg PUBLIC "-//W3C//DTD SVG 1.1//EN" "http://www.w3.org/Graphics/SVG/1.1/DTD/svg11.dtd">
<svg version="1.1" id="_0.SFG-U----------" xmlns="http://www.w3.org/2000/svg" xmlns:xlink="http://www.w3.org/1999/xlink" x="0px"
	 y="0px" width="400px" height="400px" viewBox="0 0 400 400" enable-background="new 0 0 400 400" xml:space="preserve">
<g>
	<path fill="#010101" d="M72.938,216.641l11.716-17.899l-10.619-16.394h8.093l6.875,11.02l6.74-11.02h8.019l-10.667,16.647
		l11.719,17.634h-8.348l-7.605-11.848l-7.626,11.848h-8.296V216.641z"/>
	<path fill="#010101" d="M117.188,216.646l11.716-17.902l-10.616-16.397h8.096l6.876,11.017l6.733-11.017h8.021l-10.666,16.644
		l11.722,17.637h-8.356l-7.603-11.854l-7.625,11.859h-8.302L117.188,216.646L117.188,216.646z"/>
	<path fill="#010101" d="M161.443,216.646l11.716-17.902l-10.619-16.4h8.095l6.874,11.017l6.735-11.017h8.025l-10.666,16.647
		l11.716,17.637h-8.35l-7.607-11.859l-7.625,11.859h-8.301v0.018H161.443L161.443,216.646z"/>
	<path fill="#010101" d="M205.701,216.646l11.725-17.902l-10.623-16.4h8.078l6.876,11.017l6.735-11.017h8.031l-10.668,16.653
		l11.712,17.631h-8.337l-7.62-11.842l-7.624,11.842h-8.297v0.018H205.701L205.701,216.646z"/>
	<path fill="#010101" d="M249.939,216.646l11.719-17.902l-10.617-16.4h8.09l6.882,11.017l6.724-11.017h8.032l-10.651,16.647
		l11.704,17.637h-8.344l-7.614-11.854l-7.632,11.854h-8.292V216.646L249.939,216.646L249.939,216.646L249.939,216.646z"/>
	<path fill="#010101" d="M294.208,216.656l11.719-17.903l-10.638-16.398h8.09l6.875,11.021l6.721-11.021h8.038l-10.663,16.648
		l11.713,17.631h-8.344l-7.599-11.848l-7.63,11.854h-8.294v0.016H294.208L294.208,216.656z"/>
</g>
</svg>
