<?xml version="1.0" encoding="utf-8"?>
<!-- Generator: Adobe Illustrator 13.0.1, SVG Export Plug-In . SVG Version: 6.00 Build 14948)  -->
<!DOCTYPE svg PUBLIC "-//W3C//DTD SVG 1.1//EN" "http://www.w3.org/Graphics/SVG/1.1/DTD/svg11.dtd">
<svg version="1.1" id="_0.SHG-U----------" xmlns="http://www.w3.org/2000/svg" xmlns:xlink="http://www.w3.org/1999/xlink" x="0px"
	 y="0px" width="128px" height="128px" viewBox="0 0 128 128" enable-background="new 0 0 128 128" xml:space="preserve">
<path fill="#010101" d="M66.184,59.594l0.965-1.095l0.85,0.76l-1.021,1.156c0.272,0.372,0.486,0.827,0.637,1.369
	c0.15,0.543,0.229,1.119,0.229,1.728c0,1.439-0.396,2.572-1.178,3.402c-0.787,0.818-1.824,1.232-3.113,1.232
	c-1.119,0-2.015-0.254-2.686-0.771l-0.99,1.122l-0.867-0.771l1.043-1.187c-0.592-0.804-0.891-1.851-0.891-3.142
	c0-1.427,0.394-2.554,1.178-3.391c0.785-0.825,1.834-1.239,3.145-1.239C64.564,58.773,65.468,59.045,66.184,59.594z M65.063,60.866
	c-0.414-0.354-0.935-0.533-1.563-0.533c-0.74,0-1.338,0.259-1.795,0.775c-0.458,0.515-0.684,1.3-0.684,2.34
	c0,0.655,0.094,1.22,0.281,1.688L65.063,60.866z M65.725,61.837l-3.75,4.271c0.42,0.369,0.923,0.563,1.514,0.563
	c0.723,0,1.321-0.265,1.788-0.798c0.465-0.531,0.699-1.324,0.699-2.379C65.971,62.815,65.887,62.269,65.725,61.837z"/>
<rect x="54.5" y="54.5" width="2" height="16"/>
<rect x="70.5" y="54.5" width="2" height="16"/>
<rect x="54.5" y="54.5" width="18" height="2"/>
</svg>
