<?xml version="1.0" encoding="utf-8"?>
<!-- Generator: Adobe Illustrator 13.0.1, SVG Export Plug-In . SVG Version: 6.00 Build 14948)  -->
<!DOCTYPE svg PUBLIC "-//W3C//DTD SVG 1.1//EN" "http://www.w3.org/Graphics/SVG/1.1/DTD/svg11.dtd">
<svg version="1.1" id="_0.SHG-U----------" xmlns="http://www.w3.org/2000/svg" xmlns:xlink="http://www.w3.org/1999/xlink" x="0px"
	 y="0px" width="128px" height="128px" viewBox="0 0 128 128" enable-background="new 0 0 128 128" xml:space="preserve">
<g>
	<path fill="#010101" d="M30.001,68.988l3.749-5.729l-3.397-5.246h2.591l2.199,3.525l2.156-3.525h2.568l-3.414,5.326l3.75,5.644
		H37.53l-2.433-3.793l-2.44,3.795H30L30.001,68.988L30.001,68.988z"/>
	<path fill="#010101" d="M44.203,68.988l3.748-5.729l-3.397-5.248h2.589l2.201,3.525l2.154-3.525h2.568l-3.413,5.327l3.749,5.645
		H51.73l-2.433-3.795l-2.44,3.795h-2.656v0.007L44.203,68.988L44.203,68.988z"/>
	<path fill="#010101" d="M58.406,68.988l3.752-5.729l-3.4-5.248h2.584l2.201,3.525l2.156-3.525h2.568l-3.412,5.329l3.746,5.643
		h-2.668l-2.438-3.789l-2.439,3.789H58.4v0.007L58.406,68.988L58.406,68.988z"/>
	<path fill="#010101" d="M72.602,68.988l3.748-5.729l-3.396-5.248h2.588l2.203,3.525l2.149-3.525h2.57l-3.408,5.327l3.744,5.645
		h-2.67l-2.438-3.793l-2.441,3.793H72.6v0.004h0.002V68.988L72.602,68.988z"/>
	<path fill="#010101" d="M86.807,68.988l3.75-5.729l-3.404-5.249h2.591l2.198,3.528l2.15-3.528h2.572l-3.412,5.329L97,68.982h-2.67
		l-2.432-3.793l-2.441,3.795h-2.654v0.004H86.807L86.807,68.988z"/>
</g>
<rect x="25.5" y="53.5" width="2" height="18"/>
<rect x="99.5" y="53.5" width="2" height="18"/>
<rect x="25.5" y="53.5" width="76" height="2"/>
</svg>
