<?xml version="1.0" encoding="utf-8"?>
<!-- Generator: Adobe Illustrator 13.0.1, SVG Export Plug-In . SVG Version: 6.00 Build 14948)  -->
<!DOCTYPE svg PUBLIC "-//W3C//DTD SVG 1.1//EN" "http://www.w3.org/Graphics/SVG/1.1/DTD/svg11.dtd">
<svg version="1.1" id="_0.SNG-U----------" xmlns="http://www.w3.org/2000/svg" xmlns:xlink="http://www.w3.org/1999/xlink" x="0px"
	 y="0px" width="400px" height="400px" viewBox="0 0 400 400" enable-background="new 0 0 400 400" xml:space="preserve">
<g>
	<path fill="none" stroke="#000000" stroke-width="10" stroke-linecap="round" d="M70.874,199.865
		c0-10.771-8.652-18.661-19.443-18.661c-10.788,0-18.707,7.89-18.707,18.661c0,10.036,7.922,18.646,18.707,18.646
		C62.225,218.512,70.874,209.901,70.874,199.865z"/>
	<path fill="none" stroke="#000000" stroke-width="10" stroke-linecap="round" d="M366.765,199.865
		c0-10.771-8.648-18.661-18.724-18.661c-10.806,0-18.727,7.89-18.727,18.661c0,10.036,7.927,18.646,18.727,18.646
		C358.116,218.512,366.765,209.901,366.765,199.865z"/>
	
		<line fill="none" stroke="#000000" stroke-width="10" stroke-linecap="round" x1="31.996" y1="180.489" x2="366.033" y2="180.489"/>
</g>
</svg>
