<?xml version="1.0" encoding="utf-8"?>
<!-- Generator: Adobe Illustrator 13.0.1, SVG Export Plug-In . SVG Version: 6.00 Build 14948)  -->
<!DOCTYPE svg PUBLIC "-//W3C//DTD SVG 1.1//EN" "http://www.w3.org/Graphics/SVG/1.1/DTD/svg11.dtd">
<svg version="1.1" id="_0.SNG-U----------" xmlns="http://www.w3.org/2000/svg" xmlns:xlink="http://www.w3.org/1999/xlink" x="0px"
	 y="0px" width="400px" height="400px" viewBox="0 0 400 400" enable-background="new 0 0 400 400" xml:space="preserve">
<g>
	<path fill="none" stroke="#000000" stroke-width="10" stroke-linecap="round" d="M366.413,199.882
		c0-11.048-8.631-19.147-18.685-19.147c-10.777,0-18.685,8.099-18.685,19.147c0,10.306,7.907,19.125,18.685,19.125
		C357.782,219.007,366.413,210.188,366.413,199.882z"/>
	
		<line fill="none" stroke="#000000" stroke-width="10" stroke-linecap="round" x1="32.351" y1="179.994" x2="365.688" y2="179.994"/>
	<path fill="none" stroke="#000000" stroke-width="10" stroke-linecap="round" d="M218.416,199.882
		c0-11.048-8.618-19.147-18.672-19.147c-10.781,0-18.683,8.099-18.683,19.147c0,10.306,7.906,19.125,18.683,19.125
		C209.804,219.007,218.416,210.188,218.416,199.882z"/>
	<path fill="none" stroke="#000000" stroke-width="10" stroke-linecap="round" d="M71.148,199.882
		c0-11.048-8.632-19.147-19.4-19.147c-10.769,0-18.674,8.099-18.674,19.147c0,10.306,7.908,19.125,18.674,19.125
		C62.514,219.007,71.148,210.188,71.148,199.882z"/>
</g>
</svg>
