<?xml version="1.0" encoding="utf-8"?>
<!-- Generator: Adobe Illustrator 13.0.1, SVG Export Plug-In . SVG Version: 6.00 Build 14948)  -->
<!DOCTYPE svg PUBLIC "-//W3C//DTD SVG 1.1//EN" "http://www.w3.org/Graphics/SVG/1.1/DTD/svg11.dtd">
<svg version="1.1" id="_0.SNG-U----------" xmlns="http://www.w3.org/2000/svg" xmlns:xlink="http://www.w3.org/1999/xlink" x="0px"
	 y="0px" width="400px" height="400px" viewBox="0 0 400 400" enable-background="new 0 0 400 400" xml:space="preserve">
<g>
	<path fill="none" stroke="#000000" stroke-width="10" d="M70.088,199.136c0-10.811-8.655-18.744-18.744-18.744
		c-10.811,0-18.737,7.933-18.737,18.744c0,10.815,7.93,19.473,18.737,19.473C61.433,218.603,70.088,209.951,70.088,199.136z"/>
	<path fill="none" stroke="#000000" stroke-width="10" d="M366.394,199.136c0-10.811-8.646-18.744-18.753-18.744
		c-10.812,0-18.725,7.933-18.725,18.744c0,10.815,7.917,19.473,18.725,19.473C357.748,218.603,366.394,209.951,366.394,199.136z"/>
	<line fill="none" stroke="#000000" stroke-width="10" x1="70.812" y1="199.136" x2="328.916" y2="199.136"/>
</g>
</svg>
