<?xml version="1.0" encoding="utf-8"?>
<!-- Generator: Adobe Illustrator 13.0.1, SVG Export Plug-In . SVG Version: 6.00 Build 14948)  -->
<!DOCTYPE svg PUBLIC "-//W3C//DTD SVG 1.1//EN" "http://www.w3.org/Graphics/SVG/1.1/DTD/svg11.dtd">
<svg version="1.1" id="_0.SNG-U----------" xmlns="http://www.w3.org/2000/svg" xmlns:xlink="http://www.w3.org/1999/xlink" x="0px"
	 y="0px" width="400px" height="400px" viewBox="0 0 400 400" enable-background="new 0 0 400 400" xml:space="preserve">
<g>
	
		<line fill="none" stroke="#000000" stroke-width="10" stroke-linecap="round" stroke-linejoin="round" stroke-miterlimit="10" x1="32.529" y1="180.431" x2="366.472" y2="180.431"/>
	<path fill="none" stroke="#000000" stroke-width="10" stroke-linecap="round" stroke-linejoin="round" stroke-miterlimit="10" d="
		M71.392,199.854c0-10.782-8.648-18.697-19.436-18.697c-10.786,0-18.708,7.916-18.708,18.697c0,10.068,7.919,18.714,18.708,18.714
		C62.748,218.568,71.392,209.929,71.392,199.854z"/>
	<path fill="none" stroke="#000000" stroke-width="10" stroke-linecap="round" stroke-linejoin="round" stroke-miterlimit="10" d="
		M111.692,199.854c0-10.782-8.639-18.697-18.708-18.697c-10.791,0-18.708,7.916-18.708,18.697c0,10.068,7.917,18.714,18.708,18.714
		C103.054,218.568,111.692,209.929,111.692,199.854z"/>
	<path fill="none" stroke="#000000" stroke-width="10" stroke-linecap="round" stroke-linejoin="round" stroke-miterlimit="10" d="
		M326.173,199.854c0-10.782-8.646-18.697-18.717-18.697c-10.805,0-18.718,7.916-18.718,18.697c0,10.068,7.913,18.714,18.718,18.714
		C317.534,218.568,326.173,209.929,326.173,199.854z"/>
	<path fill="none" stroke="#000000" stroke-width="10" stroke-linecap="round" stroke-linejoin="round" stroke-miterlimit="10" d="
		M366.472,199.854c0-10.782-8.633-18.697-18.72-18.697c-10.792,0-18.69,7.916-18.69,18.697c0,10.068,7.898,18.714,18.69,18.714
		C357.842,218.568,366.472,209.929,366.472,199.854z"/>
</g>
</svg>
