<?xml version="1.0" encoding="utf-8"?>
<!-- Generator: Adobe Illustrator 13.0.1, SVG Export Plug-In . SVG Version: 6.00 Build 14948)  -->
<!DOCTYPE svg PUBLIC "-//W3C//DTD SVG 1.1//EN" "http://www.w3.org/Graphics/SVG/1.1/DTD/svg11.dtd">
<svg version="1.1" id="_0.SNG-U----------" xmlns="http://www.w3.org/2000/svg" xmlns:xlink="http://www.w3.org/1999/xlink" x="0px"
	 y="0px" width="400px" height="400px" viewBox="0 0 400 400" enable-background="new 0 0 400 400" xml:space="preserve">
<g>
	<path fill="none" stroke="#000000" stroke-width="10" stroke-linecap="round" d="M32.613,199.5
		c0-13.165,10.672-23.841,23.841-23.841c13.167,0,23.84,10.677,23.84,23.841c0,13.167,10.674,23.843,23.841,23.843
		c13.17,0,23.844-10.676,23.844-23.843c0-13.165,10.67-23.841,23.839-23.841c13.167,0,23.84,10.677,23.84,23.841
		c0,13.167,10.677,23.843,23.844,23.843c13.164,0,23.843-10.676,23.843-23.843c0-13.165,10.676-23.841,23.841-23.841
		c13.17,0,23.842,10.677,23.842,23.841c0,13.167,10.67,23.843,23.84,23.843c13.171,0,23.844-10.676,23.844-23.843
		c0-13.165,10.673-23.841,23.836-23.841c13.165,0,23.846,10.677,23.846,23.841"/>
</g>
</svg>
