<?xml version="1.0"?>
<!-- Generator: Adobe Illustrator 13.0.1, SVG Export Plug-In . SVG Version: 6.00 Build 14948)  -->
<svg xmlns:svg="http://www.w3.org/2000/svg" xmlns="http://www.w3.org/2000/svg"
     xmlns:xlink="http://www.w3.org/1999/xlink" version="1.1" id="_2.G-G-GPAA------X" x="0px" y="0px" width="400px"
     height="400px" viewBox="0 0 400 400" enable-background="new 0 0 400 400" xml:space="preserve"
     preserveAspectRatio="xMidYMid meet" zoomAndPan="magnify" contentScriptType="application/ecmascript"
     contentStyleType="text/css">
    <g>
        <line stroke-dasharray="27" fill="none" stroke="#000000" stroke-width="10" x1="24.417" y1="299.5" x2="374.416"
              y2="299.5"/>
        <line stroke-dasharray="27" fill="none" stroke="#000000" stroke-width="10" x1="24.417" y1="99.5" x2="374.416"
              y2="99.5"/>
    </g>
    <polygon
        points="354.24,238.74 311.156,213.866 268.516,189.247 268.516,188.89 203.645,188.89 203.645,176.677 247.076,176.677  247.076,125.591 203.645,125.591 203.645,110.109 195.386,110.109 195.386,125.591 151.953,125.591 151.953,176.677   195.386,176.677 195.386,188.89 130.515,188.89 130.515,189.397 87.843,214.034 44.759,238.908 87.843,263.781 130.515,288.42   130.515,288.891 268.516,288.891 268.516,288.234 311.156,263.613 "/>
</svg>
