<?xml version="1.0" encoding="utf-8"?>
<!-- Generator: Adobe Illustrator 13.0.1, SVG Export Plug-In . SVG Version: 6.00 Build 14948)  -->
<!DOCTYPE svg PUBLIC "-//W3C//DTD SVG 1.1//EN" "http://www.w3.org/Graphics/SVG/1.1/DTD/svg11.dtd">
<svg version="1.1" id="_0.G-MPOAOF------X" xmlns:svg="http://www.w3.org/2000/svg"
	 xmlns="http://www.w3.org/2000/svg" xmlns:xlink="http://www.w3.org/1999/xlink" x="0px" y="0px" width="400px" height="400px"
	 viewBox="0 0 400 400" enable-background="new 0 0 400 400" xml:space="preserve">
<g>
	<line fill="none" stroke="#000000" stroke-width="5" stroke-dasharray="20,8" x1="75.75" y1="399.584" x2="75.75" y2="353.918"/>
	<line fill="none" stroke="#000000" stroke-width="5" stroke-dasharray="20,8" x1="323.25" y1="399.584" x2="323.25" y2="353.918"/>
	
		<line fill="none" stroke="#000000" stroke-width="5" stroke-dasharray="20,8" x1="273.749" y1="399.584" x2="273.749" y2="353.918"/>
	
		<line fill="none" stroke="#000000" stroke-width="5" stroke-dasharray="20,8" x1="224.249" y1="399.584" x2="224.249" y2="353.918"/>
	<line fill="none" stroke="#000000" stroke-width="5" stroke-dasharray="20,8" x1="174.75" y1="399.584" x2="174.75" y2="353.918"/>
	<line fill="none" stroke="#000000" stroke-width="5" stroke-dasharray="20,8" x1="125.25" y1="399.584" x2="125.25" y2="353.918"/>
</g>
<polygon fill="none" stroke="#000000" stroke-width="5" stroke-dasharray="25,26" points="22.435,354.902 110.968,201.561 
	199.5,48.22 288.032,201.563 376.563,354.902 199.5,354.902 "/>
<g>
	<g>
		
			<line fill="none" stroke="#000000" stroke-width="5" stroke-dasharray="20,8" x1="128.601" y1="74.913" x2="168.148" y2="97.746"/>
		<line fill="none" stroke="#000000" stroke-width="5" stroke-dasharray="20,8" x1="4.851" y1="289.254" x2="44.398" y2="312.087"/>
		
			<line fill="none" stroke="#000000" stroke-width="5" stroke-dasharray="20,8" x1="29.602" y1="246.385" x2="69.149" y2="269.218"/>
		<line fill="none" stroke="#000000" stroke-width="5" stroke-dasharray="20,8" x1="54.352" y1="203.517" x2="93.899" y2="226.35"/>
		
			<line fill="none" stroke="#000000" stroke-width="5" stroke-dasharray="20,8" x1="79.101" y1="160.649" x2="118.648" y2="183.482"/>
		
			<line fill="none" stroke="#000000" stroke-width="5" stroke-dasharray="20,8" x1="103.851" y1="117.781" x2="143.398" y2="140.614"/>
	</g>
	<g>
		
			<line fill="none" stroke="#000000" stroke-width="5" stroke-dasharray="20,8" x1="394.149" y1="289.254" x2="354.602" y2="312.088"/>
		
			<line fill="none" stroke="#000000" stroke-width="5" stroke-dasharray="20,8" x1="270.398" y1="74.912" x2="230.852" y2="97.745"/>
		
			<line fill="none" stroke="#000000" stroke-width="5" stroke-dasharray="20,8" x1="295.149" y1="117.781" x2="255.602" y2="140.614"/>
		
			<line fill="none" stroke="#000000" stroke-width="5" stroke-dasharray="20,8" x1="319.899" y1="160.649" x2="280.352" y2="183.482"/>
		
			<line fill="none" stroke="#000000" stroke-width="5" stroke-dasharray="20,8" x1="344.649" y1="203.518" x2="305.102" y2="226.352"/>
		
			<line fill="none" stroke="#000000" stroke-width="5" stroke-dasharray="20,8" x1="369.399" y1="246.387" x2="329.852" y2="269.219"/>
	</g>
</g>
</svg>
