<?xml version="1.0" encoding="utf-8"?>
<!-- Generator: Adobe Illustrator 13.0.1, SVG Export Plug-In . SVG Version: 6.00 Build 14948)  -->
<!DOCTYPE svg PUBLIC "-//W3C//DTD SVG 1.1//EN" "http://www.w3.org/Graphics/SVG/1.1/DTD/svg11.dtd">
<svg version="1.1" id="_0.G-MPOAOF------X" xmlns:svg="http://www.w3.org/2000/svg"
	 xmlns="http://www.w3.org/2000/svg" xmlns:xlink="http://www.w3.org/1999/xlink" x="0px" y="0px" width="400px" height="400px"
	 viewBox="0 0 400 400" enable-background="new 0 0 400 400" xml:space="preserve">
<path d="M288.629,199.891L199.5,45.515l-89.129,154.376L21.242,354.268H199.5h178.258L288.629,199.891z M29.165,349.404
	l85.167-147.514L199.5,54.376l85.167,147.515l85.168,147.514H199.5H29.165L29.165,349.404z"/>
<g>
	<rect x="73.084" y="353.918" width="5.333" height="45.666"/>
	<rect x="320.584" y="353.918" width="5.332" height="45.666"/>
	<rect x="271.083" y="353.918" width="5.334" height="45.666"/>
	<rect x="221.583" y="353.918" width="5.333" height="45.666"/>
	<rect x="172.084" y="353.918" width="5.333" height="45.666"/>
	<rect x="122.584" y="353.918" width="5.333" height="45.666"/>
</g>
<g>
	<g>
		<rect x="27.717" y="271.351" transform="matrix(-0.5 0.866 -0.866 -0.5 300.3399 414.975)" width="5.332" height="45.665"/>
		<rect x="151.475" y="56.994" transform="matrix(-0.5 0.866 -0.866 -0.5 300.3471 -13.743)" width="5.332" height="45.665"/>
		<rect x="126.725" y="99.865" transform="matrix(-0.5 0.866 -0.866 -0.5 300.3486 71.9934)" width="5.334" height="45.665"/>
		
			<rect x="101.985" y="142.729" transform="matrix(-0.5001 0.866 -0.866 -0.5001 300.3595 157.7354)" width="5.333" height="45.667"/>
		<rect x="77.224" y="185.614" transform="matrix(-0.5 0.866 -0.866 -0.5 300.3547 243.4837)" width="5.332" height="45.665"/>
		<rect x="52.471" y="228.483" transform="matrix(-0.5 0.866 -0.866 -0.5 300.3463 329.234)" width="5.332" height="45.665"/>
	</g>
	<g>
		<rect x="365.95" y="271.344" transform="matrix(0.5 0.866 -0.866 0.5 439.0941 -172.1394)" width="5.332" height="45.665"/>
		<rect x="242.239" y="57.001" transform="matrix(0.5 0.866 -0.866 0.5 191.5905 -172.1775)" width="5.332" height="45.665"/>
		<rect x="266.981" y="99.871" transform="matrix(0.5001 0.866 -0.866 0.5001 241.0494 -172.1666)" width="5.335" height="45.665"/>
		<rect x="291.71" y="142.741" transform="matrix(0.5 0.866 -0.866 0.5 290.5638 -172.1499)" width="5.332" height="45.665"/>
		
			<rect x="316.485" y="185.589" transform="matrix(0.5002 0.8659 -0.8659 0.5002 339.9724 -172.1872)" width="5.333" height="45.669"/>
		<rect x="341.204" y="228.477" transform="matrix(0.5 0.866 -0.866 0.5 389.5945 -172.1436)" width="5.332" height="45.665"/>
	</g>
</g>
</svg>
