<?xml version="1.0" encoding="utf-8"?>
<!-- Generator: Adobe Illustrator 13.0.1, SVG Export Plug-In . SVG Version: 6.00 Build 14948)  -->
<!DOCTYPE svg PUBLIC "-//W3C//DTD SVG 1.1//EN" "http://www.w3.org/Graphics/SVG/1.1/DTD/svg11.dtd">
<svg version="1.1" id="_0.G-MPOAOF------X" xmlns:svg="http://www.w3.org/2000/svg"
     xmlns="http://www.w3.org/2000/svg" xmlns:xlink="http://www.w3.org/1999/xlink" x="0px" y="0px" width="400px"
     height="400px"
     viewBox="0 0 400 400" enable-background="new 0 0 400 400" xml:space="preserve">
    <path d="M288.629,199.891L199.5,45.515l-89.129,154.376L21.242,354.268H199.5h178.258L288.629,199.891z M29.165,349.404
	l85.167-147.514L199.5,54.376l85.167,147.515l85.168,147.514H199.5H29.165L29.165,349.404z"/>
    <rect x="154.495" y="126.392" transform="matrix(0.5001 0.866 -0.866 0.5001 317.0631 1.7748)" width="4.999"
          height="298.226"/>
    <g>
        <path fill="#231F20" d="M202.307,246.78c-15.24-21.01-35.04-35.63-56.588-38.885c-1.441-0.359-2.941-0.572-4.494-0.572
		c-10.217,0-18.5,8.283-18.5,18.5s8.283,18.5,18.5,18.5s18.5-8.283,18.5-18.5c0-2.554-0.518-4.986-1.453-7.199
		c14.096,5.803,27.369,17.085,38.369,32.266c15.401,21.232,26.215,49.923,28.658,80.787l6.977-0.554
		C229.717,298.985,218.531,269.175,202.307,246.78z"/>
        <path fill="#231F20" d="M196.693,246.78c15.24-21.01,35.039-35.63,56.588-38.885c1.441-0.359,2.941-0.572,4.494-0.572
		c10.217,0,18.5,8.283,18.5,18.5s-8.283,18.5-18.5,18.5s-18.5-8.283-18.5-18.5c0-2.554,0.518-4.986,1.453-7.199
		c-14.096,5.803-27.369,17.085-38.369,32.266c-15.401,21.232-26.215,49.923-28.657,80.787l-6.977-0.554
		C169.283,298.985,180.47,269.175,196.693,246.78z"/>
    </g>
</svg>
