<?xml version="1.0"?>
<!-- SVG content generated using Symbology Configuration Management System (SCMS) -->
<!-- Systematic Software Engineering Ltd. - www.systematic.co.uk - do not remove  -->
<svg xmlns="http://www.w3.org/2000/svg" xmlns:xlink="http://www.w3.org/1999/xlink" id="G*SPPSG---****X" width="400px"
     height="400px" viewBox="0 0 400 400" preserveAspectRatio="xMidYMid meet" zoomAndPan="magnify" version="1.1"
     contentScriptType="application/ecmascript" contentStyleType="text/css">
    <g>
        <svg viewBox="0 0 400 400" id="_0.GP------------X" width="400px" height="400px"
             preserveAspectRatio="xMidYMid meet" zoomAndPan="magnify" version="1.1"
             contentScriptType="application/ecmascript" contentStyleType="text/css">
            <rect x="130" y="100" width="140" height="180"
                  style="fill:none;stroke:rgb(0,0,0);stroke-width:5;stroke-dasharray:10 9"/>
            <polyline points="130,281 200,375 270,281" transform="matrix(1 0 0 1 0 0)"
                      style="fill:none;stroke:rgb(0,0,0);stroke-width:5;stroke-dasharray:10 9"/>
        </svg>

    </g>
    <g>
        <svg viewBox="0 0 400 400" id="_1.GSP-----------X" width="400px" height="400px"
             preserveAspectRatio="xMidYMid meet" zoomAndPan="magnify" version="1.1"
             contentScriptType="application/ecmascript" contentStyleType="text/css">
            <line x1="130" y1="250" x2="270" y2="250" transform="matrix(1 0 0 1 0 0)"
                  style="fill:none;stroke:rgb(0,0,0);stroke-width:5"/>
        </svg>

    </g>
    <g>
        <svg viewBox="0 0 400 400" id="_2.G-S-PSG-------X" width="400px" height="400px"
             preserveAspectRatio="xMidYMid meet" zoomAndPan="magnify" version="1.1"
             contentScriptType="application/ecmascript" contentStyleType="text/css">
            <g transform="translate(-200 -200) scale(0.75 0.75) translate(334 300) translate(200 218) scale(1 1) translate(-200 -218)">
                <ellipse cx="140" cy="200" rx="18" ry="18" style="fill:rgb(0,0,0);stroke:rgb(0,0,0);stroke-width:10"/>
                <ellipse cx="260" cy="200" rx="18" ry="18" style="fill:rgb(0,0,0);stroke:rgb(0,0,0);stroke-width:10"/>
                <path d="M145 190 C180 160 220 160 255 190" style="fill:none;stroke:rgb(0,0,0);stroke-width:5"/>
            </g>
        </svg>

    </g>
</svg>
