<?xml version="1.0"?>
<!DOCTYPE svg PUBLIC "-//W3C//DTD SVG 1.1//EN" "http://www.w3.org/Graphics/SVG/1.1/DTD/svg11.dtd" >
<!-- SVG content generated using Symbology Configuration Management System (SCMS) -->
<!-- Systematic Software Engineering Ltd. - www.systematic.co.uk - do not remove  -->
<svg id="G*SPPSD---****X" width="400px" height="400px" viewBox="0 0 400 400">
    <g>
        <svg viewBox="0 0 400 400" id="_0.GP------------X" width="400px" height="400px">
            <rect x="130" y="100" width="140" height="180" style="fill:none;stroke:rgb(0,0,0);stroke-width:5"></rect>
            <polyline points="130,281 200,375 270,281" transform="matrix(1 0 0 1 0 0)"
                      style="fill:none;stroke:rgb(0,0,0);stroke-width:5"></polyline>
        </svg>

    </g>
    <g>
        <svg viewBox="0 0 400 400" id="_1.GSP-----------X" width="400px" height="400px">
            <line x1="130" y1="250" x2="270" y2="250" transform="matrix(1 0 0 1 0 0)"
                  style="fill:none;stroke:rgb(0,0,0);stroke-width:5"></line>
        </svg>

    </g>
    <g>
        <svg viewBox="0 0 400 400" id="_2.G-S-PSD-------X" width="400px" height="400px">
            <line x1="150" y1="200" x2="150" y2="150" transform="matrix(1 0 0 1 0 0)"
                  style="fill:none;stroke:rgb(0,0,0);stroke-width:5;stroke-linecap:square"></line>
            <line x1="150" y1="150" x2="250" y2="150" transform="matrix(1 0 0 1 0 0)"
                  style="fill:none;stroke:rgb(0,0,0);stroke-width:5;stroke-linecap:square"></line>
            <line x1="250" y1="152" x2="250" y2="200" transform="matrix(1 0 0 1 0 0)"
                  style="fill:none;stroke:rgb(0,0,0);stroke-width:5;stroke-linecap:square"></line>
            <line x1="200" y1="150" x2="200" y2="180" transform="matrix(1 0 0 1 0 0) translate(0 0)"
                  style="fill:none;stroke:rgb(0,0,0);stroke-width:5;stroke-linecap:square"></line>
        </svg>

    </g>
</svg>