<?xml version="1.0"?>
<!-- Generator: Adobe Illustrator 13.0.1, SVG Export Plug-In . SVG Version: 6.00 Build 14948)  -->
<svg xmlns:svg="http://www.w3.org/2000/svg" xmlns="http://www.w3.org/2000/svg"
     xmlns:xlink="http://www.w3.org/1999/xlink" version="1.1" id="_2.G-G-GPAA------X" x="0px" y="0px" width="400px"
     height="400px" viewBox="0 0 400 400" enable-background="new 0 0 400 400" xml:space="preserve"
     preserveAspectRatio="xMidYMid meet" zoomAndPan="magnify" contentScriptType="application/ecmascript"
     contentStyleType="text/css">
    <g>
        <line stroke-dasharray="27" fill="none" stroke="#000000" stroke-width="10" x1="99.5" y1="24.5" x2="99.5"
              y2="374.5"/>
        <line stroke-dasharray="27" fill="none" stroke="#000000" stroke-width="10" x1="299.5" y1="24.5" x2="299.5"
              y2="374.5"/>
    </g>
    <g>
        <text transform="matrix(1 0 0 1 119.2983 142.9712)" font-family="'Arial-BoldMT'" font-size="68.7537">SUW</text>
        <path fill="#231F20"
              d="M278.655,278.453v-11.941l-72.464-71.8v-31.374c0-3.583-2.903-6.489-6.487-6.489   c-3.585,0-6.489,2.906-6.489,6.489v30.971l-72.87,72.203v11.941l72.87-45.881v58.074l-16.942,16.566v7.143l18.656-7.611   l0.395,0.684l4.383,7.59l4.382-7.59l0.497-0.861l19.09,7.789v-7.143l-17.483-17.094v-57.291L278.655,278.453z"/>
    </g>
</svg>
