<?xml version="1.0" encoding="utf-8"?>
<!-- Generator: Adobe Illustrator 13.0.1, SVG Export Plug-In . SVG Version: 6.00 Build 14948)  -->
<!DOCTYPE svg PUBLIC "-//W3C//DTD SVG 1.1//EN" "http://www.w3.org/Graphics/SVG/1.1/DTD/svg11.dtd">
<svg version="1.1" id="_0.G-GPGPWA------X" xmlns="http://www.w3.org/2000/svg" xmlns:xlink="http://www.w3.org/1999/xlink" x="0px"
	 y="0px" width="400px" height="400px" viewBox="0 0 400 400" enable-background="new 0 0 400 400" xml:space="preserve">
<path fill="none" stroke="#000000" stroke-width="8" stroke-dasharray="27" d="M199.75,30.75c-47.166,0-87.101,16.366-119.819,49.07
	c-32.69,32.704-49.056,72.639-49.056,119.805s16.366,87.102,49.056,119.818c32.718,32.69,72.653,49.057,119.819,49.057
	s87.102-16.366,119.805-49.057c32.704-32.717,49.07-72.652,49.07-119.818s-16.366-87.101-49.07-119.805
	C286.852,47.116,246.916,30.75,199.75,30.75z"/>
<path fill="none" stroke="#000000" stroke-width="8" stroke-dasharray="27" d="M329.25,199.395c0-35.504-12.334-65.64-36.98-90.385
	c-24.647-24.745-54.754-37.135-90.328-37.135c-35.848,0-66.039,12.306-90.552,36.911c-24.5,24.612-36.764,54.81-36.764,90.601
	c0,35.519,12.334,65.583,36.967,90.195c24.668,24.611,54.768,36.918,90.35,36.918c35.58,0,65.681-12.307,90.328-36.911
	C316.916,264.984,329.25,234.912,329.25,199.395z"/>
<path fill="none" stroke="#000000" stroke-width="8" stroke-dasharray="27" d="M201.27,246.875c-13.742,0-25.445-4.76-35.141-14.23
	c-9.667-9.5-14.504-21.099-14.504-34.77c0-13.958,4.774-25.62,14.301-34.972c9.555-9.352,21.329-14.028,35.344-14.028
	c13.74,0,25.375,4.76,34.916,14.245c9.541,9.485,14.314,21.084,14.314,34.755s-4.773,25.264-14.314,34.77
	C226.645,242.115,215.01,246.875,201.27,246.875z"/>
</svg>
