<?xml version="1.0" encoding="utf-8"?>
<!-- Generator: Adobe Illustrator 13.0.1, SVG Export Plug-In . SVG Version: 6.00 Build 14948)  -->
<!DOCTYPE svg PUBLIC "-//W3C//DTD SVG 1.1//EN" "http://www.w3.org/Graphics/SVG/1.1/DTD/svg11.dtd">
<svg version="1.1" id="_0.G-MPOAOF------X" xmlns:svg="http://www.w3.org/2000/svg"
     xmlns="http://www.w3.org/2000/svg" xmlns:xlink="http://www.w3.org/1999/xlink" x="0px" y="0px" width="400px"
     height="400px"
     viewBox="0 0 400 400" enable-background="new 0 0 400 400" xml:space="preserve">
    <g>
        <path d="M202.307,246.78c-15.24-21.011-35.04-35.63-56.587-38.886c-1.441-0.358-2.941-0.571-4.494-0.571
		c-10.217,0-18.5,8.282-18.5,18.5c0,10.217,8.283,18.5,18.5,18.5c10.217,0,18.5-8.283,18.5-18.5c0-2.554-0.518-4.986-1.453-7.199
		c14.096,5.803,27.369,17.085,38.369,32.267c15.401,21.231,26.214,49.922,28.658,80.786l6.977-0.554
		C229.717,298.984,218.531,269.175,202.307,246.78z"/>
        <path d="M196.693,246.78c15.241-21.011,35.04-35.63,56.588-38.886c1.441-0.358,2.941-0.571,4.494-0.571
		c10.217,0,18.5,8.282,18.5,18.5c0,10.217-8.283,18.5-18.5,18.5s-18.5-8.283-18.5-18.5c0-2.554,0.518-4.986,1.453-7.199
		c-14.097,5.803-27.369,17.085-38.369,32.267c-15.401,21.231-26.215,49.922-28.657,80.786l-6.977-0.554
		C169.283,298.984,180.47,269.175,196.693,246.78z"/>
    </g>
    <polygon fill="none" stroke="#FFFFFF" stroke-width="5" stroke-dasharray="25,26" points="22.436,354.092 110.968,200.749
	199.501,47.408 288.032,200.751 376.564,354.091 199.5,354.091 "/>
    <line fill="none" stroke="#FFFFFF" stroke-width="5" stroke-dasharray="24,24" x1="27.567" y1="351.129" x2="285.932"
          y2="201.963"/>
</svg>
