<?xml version="1.0" encoding="UTF-8" standalone="no"?>
<!-- Generator: Adobe Illustrator 13.0.1, SVG Export Plug-In . SVG Version: 6.00 Build 14948)  -->

<svg
   xmlns:dc="http://purl.org/dc/elements/1.1/"
   xmlns:cc="http://creativecommons.org/ns#"
   xmlns:rdf="http://www.w3.org/1999/02/22-rdf-syntax-ns#"
   xmlns:svg="http://www.w3.org/2000/svg"
   xmlns="http://www.w3.org/2000/svg"
   xmlns:sodipodi="http://sodipodi.sourceforge.net/DTD/sodipodi-0.dtd"
   xmlns:inkscape="http://www.inkscape.org/namespaces/inkscape"
   version="1.1"
   id="_2.G-G-GPAA------X"
   x="0px"
   y="0px"
   width="400px"
   height="400px"
   viewBox="0 0 400 400"
   enable-background="new 0 0 400 400"
   xml:space="preserve"
   preserveAspectRatio="xMidYMid meet"
   zoomAndPan="magnify"
   contentScriptType="application/ecmascript"
   contentStyleType="text/css"
   inkscape:version="0.48.2 r9819"
   sodipodi:docname="g-gagpbsa-----x.svg"><metadata
   id="metadata15"><rdf:RDF><cc:Work
       rdf:about=""><dc:format>image/svg+xml</dc:format><dc:type
         rdf:resource="http://purl.org/dc/dcmitype/StillImage" /></cc:Work></rdf:RDF></metadata><defs
   id="defs13" /><sodipodi:namedview
   pagecolor="#ffffff"
   bordercolor="#666666"
   borderopacity="1"
   objecttolerance="10"
   gridtolerance="10"
   guidetolerance="10"
   inkscape:pageopacity="0"
   inkscape:pageshadow="2"
   inkscape:window-width="640"
   inkscape:window-height="480"
   id="namedview11"
   showgrid="false"
   inkscape:zoom="0.59"
   inkscape:cx="200"
   inkscape:cy="200"
   inkscape:window-x="0"
   inkscape:window-y="0"
   inkscape:window-maximized="0"
   inkscape:current-layer="_2.G-G-GPAA------X" />
    <g
   id="g3">
        <line
   stroke-dasharray="27"
   fill="none"
   stroke="#FFFFFF"
   stroke-width="10"
   x1="24.417"
   y1="299.5"
   x2="374.416"
   y2="299.5"
   id="line5" />
        <line
   stroke-dasharray="27"
   fill="none"
   stroke="#FFFFFF"
   stroke-width="10"
   x1="24.417"
   y1="99.5"
   x2="374.416"
   y2="99.5"
   id="line7" />
    </g>
    <polygon
   points="354.24,238.74 311.156,213.866 268.516,189.247 268.516,188.89 203.645,188.89 203.645,176.677 247.076,176.677  247.076,125.591 203.645,125.591 203.645,110.109 195.386,110.109 195.386,125.591 151.953,125.591 151.953,176.677   195.386,176.677 195.386,188.89 130.515,188.89 130.515,189.397 87.843,214.034 44.759,238.908 87.843,263.781 130.515,288.42   130.515,288.891 268.516,288.891 268.516,288.234 311.156,263.613 "
   id="polygon9"
   style="fill:#ffffff" />
</svg>