<?xml version="1.0" encoding="UTF-8" standalone="no"?>
<!-- Generator: Adobe Illustrator 13.0.1, SVG Export Plug-In . SVG Version: 6.00 Build 14948)  -->

<svg
   xmlns:dc="http://purl.org/dc/elements/1.1/"
   xmlns:cc="http://creativecommons.org/ns#"
   xmlns:rdf="http://www.w3.org/1999/02/22-rdf-syntax-ns#"
   xmlns:svg="http://www.w3.org/2000/svg"
   xmlns="http://www.w3.org/2000/svg"
   xmlns:sodipodi="http://sodipodi.sourceforge.net/DTD/sodipodi-0.dtd"
   xmlns:inkscape="http://www.inkscape.org/namespaces/inkscape"
   version="1.1"
   id="_0.G-GPGPWA------X"
   x="0px"
   y="0px"
   width="400px"
   height="400px"
   viewBox="0 0 400 400"
   enable-background="new 0 0 400 400"
   xml:space="preserve"
   inkscape:version="0.48.2 r9819"
   sodipodi:docname="g-gagpwa------x.svg"><metadata
   id="metadata3001"><rdf:RDF><cc:Work
       rdf:about=""><dc:format>image/svg+xml</dc:format><dc:type
         rdf:resource="http://purl.org/dc/dcmitype/StillImage" /></cc:Work></rdf:RDF></metadata><defs
   id="defs2999" /><sodipodi:namedview
   pagecolor="#ffffff"
   bordercolor="#666666"
   borderopacity="1"
   objecttolerance="10"
   gridtolerance="10"
   guidetolerance="10"
   inkscape:pageopacity="0"
   inkscape:pageshadow="2"
   inkscape:window-width="705"
   inkscape:window-height="480"
   id="namedview2997"
   showgrid="false"
   inkscape:zoom="0.59"
   inkscape:cx="200"
   inkscape:cy="200"
   inkscape:window-x="0"
   inkscape:window-y="0"
   inkscape:window-maximized="0"
   inkscape:current-layer="_0.G-GPGPWA------X" />
<path
   fill="none"
   stroke="#000000"
   stroke-width="8"
   stroke-dasharray="27"
   d="M199.75,30.75c-47.166,0-87.101,16.366-119.819,49.07  c-32.69,32.704-49.056,72.639-49.056,119.805s16.366,87.102,49.056,119.818c32.718,32.69,72.653,49.057,119.819,49.057  s87.102-16.366,119.805-49.057c32.704-32.717,49.07-72.652,49.07-119.818s-16.366-87.101-49.07-119.805  C286.852,47.116,246.916,30.75,199.75,30.75z"
   id="path2991"
   style="stroke:#ffffff;stroke-opacity:1" />
<path
   fill="none"
   stroke="#000000"
   stroke-width="8"
   stroke-dasharray="27"
   d="M329.25,199.395c0-35.504-12.334-65.64-36.98-90.385  c-24.647-24.745-54.754-37.135-90.328-37.135c-35.848,0-66.039,12.306-90.552,36.911c-24.5,24.612-36.764,54.81-36.764,90.601  c0,35.519,12.334,65.583,36.967,90.195c24.668,24.611,54.768,36.918,90.35,36.918c35.58,0,65.681-12.307,90.328-36.911  C316.916,264.984,329.25,234.912,329.25,199.395z"
   id="path2993"
   style="stroke:#ffffff;stroke-opacity:1" />
<path
   fill="none"
   stroke="#000000"
   stroke-width="8"
   stroke-dasharray="27"
   d="M201.27,246.875c-13.742,0-25.445-4.76-35.141-14.23  c-9.667-9.5-14.504-21.099-14.504-34.77c0-13.958,4.774-25.62,14.301-34.972c9.555-9.352,21.329-14.028,35.344-14.028  c13.74,0,25.375,4.76,34.916,14.245c9.541,9.485,14.314,21.084,14.314,34.755s-4.773,25.264-14.314,34.77  C226.645,242.115,215.01,246.875,201.27,246.875z"
   id="path2995"
   style="stroke:#ffffff;stroke-opacity:1" />
</svg>