<?xml version="1.0" encoding="UTF-8" standalone="no"?>
<!-- SVG content generated using Symbology Configuration Management System (SCMS) -->

<!-- Systematic Software Engineering Ltd. - www.systematic.co.uk - do not remove  -->

<svg
   xmlns:dc="http://purl.org/dc/elements/1.1/"
   xmlns:cc="http://creativecommons.org/ns#"
   xmlns:rdf="http://www.w3.org/1999/02/22-rdf-syntax-ns#"
   xmlns:svg="http://www.w3.org/2000/svg"
   xmlns="http://www.w3.org/2000/svg"
   xmlns:sodipodi="http://sodipodi.sourceforge.net/DTD/sodipodi-0.dtd"
   xmlns:inkscape="http://www.inkscape.org/namespaces/inkscape"
   id="G*GPGPRI--****X"
   width="400px"
   height="400px"
   viewBox="0 0 400 400"
   version="1.1"
   inkscape:version="0.48.2 r9819"
   sodipodi:docname="g-gpgpri------x.svg">
  <metadata
     id="metadata14">
    <rdf:RDF>
      <cc:Work
         rdf:about="">
        <dc:format>image/svg+xml</dc:format>
        <dc:type
           rdf:resource="http://purl.org/dc/dcmitype/StillImage" />
      </cc:Work>
    </rdf:RDF>
  </metadata>
  <defs
     id="defs12" />
  <sodipodi:namedview
     pagecolor="#ffffff"
     bordercolor="#666666"
     borderopacity="1"
     objecttolerance="10"
     gridtolerance="10"
     guidetolerance="10"
     inkscape:pageopacity="0"
     inkscape:pageshadow="2"
     inkscape:window-width="640"
     inkscape:window-height="480"
     id="namedview10"
     showgrid="false"
     inkscape:zoom="0.59"
     inkscape:cx="200"
     inkscape:cy="200"
     inkscape:window-x="0"
     inkscape:window-y="0"
     inkscape:window-maximized="0"
     inkscape:current-layer="G*GPGPRI--****X" />
  <g
     id="g3">
    <svg
       viewBox="0 0 400 400"
       id="_0.G-GPGPRI------X"
       width="400px"
       height="400px"
       version="1.1">
      <path
         fill="#FFFFFF"
         d="M200,25C142.008,25.002,95.003,72.008,95,130c0.001,23.645,7.819,45.461,21.006,63.012L200,375   l83.996-181.991C297.182,175.459,304.998,153.644,305,130C304.996,72.008,257.989,25.002,200,25z M132.824,62.824   C150.033,45.625,173.75,35.002,200,35c26.249,0.002,49.967,10.625,67.174,27.824c17.199,17.208,27.822,40.926,27.824,67.176   c-0.001,18.359-5.204,35.478-14.214,50c-3.871,6.24-8.441,12.003-13.61,17.175c-17.207,17.198-40.925,27.821-67.174,27.823   c-26.25-0.002-49.967-10.625-67.176-27.823c-5.169-5.171-9.739-10.935-13.61-17.175c-9.01-14.522-14.212-31.641-14.214-50   C105.002,103.75,115.625,80.033,132.824,62.824z"
         id="path8" />
    </svg>
  </g>
</svg>
