<?xml version="1.0" encoding="UTF-8" standalone="no"?>
<!-- Generator: Adobe Illustrator 13.0.1, SVG Export Plug-In . SVG Version: 6.00 Build 14948)  -->

<svg
   xmlns:dc="http://purl.org/dc/elements/1.1/"
   xmlns:cc="http://creativecommons.org/ns#"
   xmlns:rdf="http://www.w3.org/1999/02/22-rdf-syntax-ns#"
   xmlns:svg="http://www.w3.org/2000/svg"
   xmlns="http://www.w3.org/2000/svg"
   xmlns:sodipodi="http://sodipodi.sourceforge.net/DTD/sodipodi-0.dtd"
   xmlns:inkscape="http://www.inkscape.org/namespaces/inkscape"
   version="1.1"
   id="_2.G-G-GPAA------X"
   x="0px"
   y="0px"
   width="400px"
   height="400px"
   viewBox="0 0 400 400"
   enable-background="new 0 0 400 400"
   xml:space="preserve"
   inkscape:version="0.48.2 r9819"
   sodipodi:docname="g-gpgpad------x.svg"><metadata
   id="metadata19"><rdf:RDF><cc:Work
       rdf:about=""><dc:format>image/svg+xml</dc:format><dc:type
         rdf:resource="http://purl.org/dc/dcmitype/StillImage" /></cc:Work></rdf:RDF></metadata><defs
   id="defs17" /><sodipodi:namedview
   pagecolor="#ffffff"
   bordercolor="#666666"
   borderopacity="1"
   objecttolerance="10"
   gridtolerance="10"
   guidetolerance="10"
   inkscape:pageopacity="0"
   inkscape:pageshadow="2"
   inkscape:window-width="640"
   inkscape:window-height="480"
   id="namedview15"
   showgrid="false"
   inkscape:zoom="0.59"
   inkscape:cx="200"
   inkscape:cy="200"
   inkscape:window-x="0"
   inkscape:window-y="0"
   inkscape:window-maximized="0"
   inkscape:current-layer="g9" />
    <g
   id="g3">
        <line
   fill="none"
   stroke="#FFFFFF"
   stroke-width="10"
   x1="99.5"
   y1="24.5"
   x2="99.5"
   y2="374.5"
   id="line5" />
        <line
   fill="none"
   stroke="#FFFFFF"
   stroke-width="10"
   x1="299.5"
   y1="24.5"
   x2="299.5"
   y2="374.5"
   id="line7" />
    </g>
    <g
   id="g9">
        <text
   transform="matrix(1 0 0 1 128.8662 142.9712)"
   font-family="'Arial-BoldMT'"
   font-size="68.7537"
   id="text11"
   style="fill:#ffffff">MIW</text>

        <path
   fill="#231F20"
   d="M278.655,278.453v-11.941l-72.464-71.8v-31.374c0-3.583-2.903-6.489-6.487-6.489   c-3.585,0-6.489,2.906-6.489,6.489v30.971l-72.87,72.203v11.941l72.87-45.881v58.074l-16.942,16.566v7.143l18.656-7.611   l0.395,0.684l4.383,7.59l4.382-7.59l0.497-0.861l19.09,7.789v-7.143l-17.483-17.094v-57.291L278.655,278.453z"
   id="path13"
   style="fill:#ffffff" />
    </g>
</svg>