<?xml version="1.0" encoding="UTF-8" standalone="no"?>
<!-- Generator: Adobe Illustrator 13.0.1, SVG Export Plug-In . SVG Version: 6.00 Build 14948)  -->

<svg
   xmlns:dc="http://purl.org/dc/elements/1.1/"
   xmlns:cc="http://creativecommons.org/ns#"
   xmlns:rdf="http://www.w3.org/1999/02/22-rdf-syntax-ns#"
   xmlns:svg="http://www.w3.org/2000/svg"
   xmlns="http://www.w3.org/2000/svg"
   xmlns:sodipodi="http://sodipodi.sourceforge.net/DTD/sodipodi-0.dtd"
   xmlns:inkscape="http://www.inkscape.org/namespaces/inkscape"
   version="1.1"
   id="_0.G-MPOAOF------X"
   x="0px"
   y="0px"
   width="400px"
   height="400px"
   viewBox="0 0 400 400"
   enable-background="new 0 0 400 400"
   xml:space="preserve"
   inkscape:version="0.48.2 r9819"
   sodipodi:docname="g-gpdpoc------x.svg"><metadata
   id="metadata53"><rdf:RDF><cc:Work
       rdf:about=""><dc:format>image/svg+xml</dc:format><dc:type
         rdf:resource="http://purl.org/dc/dcmitype/StillImage" /></cc:Work></rdf:RDF></metadata><defs
   id="defs51">
            
            
            

            
            
            
        
        
        
        
        
        
        
    
        
        
    
            
            
            
            

            
            
        </defs><sodipodi:namedview
   pagecolor="#ffffff"
   bordercolor="#666666"
   borderopacity="1"
   objecttolerance="10"
   gridtolerance="10"
   guidetolerance="10"
   inkscape:pageopacity="0"
   inkscape:pageshadow="2"
   inkscape:window-width="705"
   inkscape:window-height="480"
   id="namedview49"
   showgrid="false"
   inkscape:zoom="0.59"
   inkscape:cx="239.41252"
   inkscape:cy="200"
   inkscape:window-x="154"
   inkscape:window-y="203"
   inkscape:window-maximized="0"
   inkscape:current-layer="_0.G-MPOAOF------X" />
    <path
   d="M288.629,199.891L199.5,45.515l-89.129,154.376L21.242,354.268H199.5h178.258L288.629,199.891z M29.165,349.404  l85.167-147.514L199.5,54.376l85.167,147.515l85.168,147.514H199.5H29.165L29.165,349.404z"
   id="path3"
   style="fill:#ffffff" />
    <rect
   id="rect7"
   height="45.666"
   width="5.3330002"
   y="353.918"
   x="73.084"
   style="fill:#ffffff" /><rect
   id="rect9"
   height="45.666"
   width="5.3319998"
   y="353.918"
   x="320.58401"
   style="fill:#ffffff" /><rect
   id="rect11"
   height="45.666"
   width="5.3340001"
   y="353.918"
   x="271.08301"
   style="fill:#ffffff" /><rect
   id="rect13"
   height="45.666"
   width="5.3330002"
   y="353.918"
   x="221.58299"
   style="fill:#ffffff" /><rect
   id="rect15"
   height="45.666"
   width="5.3330002"
   y="353.918"
   x="172.084"
   style="fill:#ffffff" /><rect
   id="rect17"
   height="45.666"
   width="5.3330002"
   y="353.918"
   x="122.584"
   style="fill:#ffffff" />
    <rect
   x="236.91939"
   y="-196.2471"
   transform="matrix(-0.500011,0.86601905,-0.86601905,-0.500011,0,0)"
   width="5.3318825"
   height="45.663998"
   id="rect23"
   style="fill:#ffffff" /><rect
   x="-10.60688"
   y="-196.24191"
   transform="matrix(-0.500011,0.86601905,-0.86601905,-0.500011,0,0)"
   width="5.3318825"
   height="45.663998"
   id="rect25"
   style="fill:#ffffff" /><rect
   x="38.892262"
   y="-196.24229"
   transform="matrix(-0.500011,0.86601905,-0.86601905,-0.500011,0,0)"
   width="5.3338828"
   height="45.663998"
   id="rect27"
   style="fill:#ffffff" /><rect
   x="88.377312"
   y="-196.2523"
   transform="matrix(-0.500086,0.86597575,-0.86597575,-0.500086,0,0)"
   width="5.3331494"
   height="45.668278"
   id="rect29"
   style="fill:#ffffff" /><rect
   x="137.90317"
   y="-196.24751"
   transform="matrix(-0.500011,0.86601905,-0.86601905,-0.500011,0,0)"
   width="5.3318825"
   height="45.663998"
   id="rect31"
   style="fill:#ffffff" /><rect
   x="187.41631"
   y="-196.24826"
   transform="matrix(-0.500011,0.86601905,-0.86601905,-0.500011,0,0)"
   width="5.3318825"
   height="45.663998"
   id="rect33"
   style="fill:#ffffff" /><rect
   x="436.41785"
   y="-194.99742"
   transform="matrix(0.500011,0.86601905,-0.86601905,0.500011,0,0)"
   width="5.3318825"
   height="45.663998"
   id="rect37"
   style="fill:#ffffff" /><rect
   x="188.92203"
   y="-195.01192"
   transform="matrix(0.500011,0.86601905,-0.86601905,0.500011,0,0)"
   width="5.3318825"
   height="45.663998"
   id="rect39"
   style="fill:#ffffff" /><rect
   x="238.44179"
   y="-194.96724"
   transform="matrix(0.500086,0.86597575,-0.86597575,0.500086,0,0)"
   width="5.3351493"
   height="45.666279"
   id="rect41"
   style="fill:#ffffff" /><rect
   x="287.90356"
   y="-194.97278"
   transform="matrix(0.500011,0.86601905,-0.86601905,0.500011,0,0)"
   width="5.3318825"
   height="45.663998"
   id="rect43"
   style="fill:#ffffff" /><rect
   x="337.43976"
   y="-194.92599"
   transform="matrix(0.50020429,0.86590743,-0.86590743,0.50020429,0,0)"
   width="5.3329544"
   height="45.668606"
   id="rect45"
   style="fill:#ffffff" /><rect
   x="386.9184"
   y="-194.99797"
   transform="matrix(0.500011,0.86601905,-0.86601905,0.500011,0,0)"
   width="5.3318825"
   height="45.663998"
   id="rect47"
   style="fill:#ffffff" />
</svg>