<?xml version="1.0"?>
<!DOCTYPE svg PUBLIC "-//W3C//DTD SVG 1.1//EN" "http://www.w3.org/Graphics/SVG/1.1/DTD/svg11.dtd" >
<!-- SVG content generated using Symbology Configuration Management System (SCMS) -->
<!-- Systematic Software Engineering Ltd. - www.systematic.co.uk - do not remove  -->
<svg id="G*GPGPUYK-****X" width="400px" height="400px" viewBox="0 0 400 400">
    <g>
        <svg viewBox="0 0 400 400" id="_0.G-G-GPUY------X" width="400px" height="400px">
            <g transform="translate(110 30) scale(6 6)">
                <path d="M29.125 42.029 C29.125 46.154 27.727 49.617 24.93 52.422 C22.133 55.223 18.676 56.625
				14.563 56.625 C10.489 56.625 7.042 55.213 4.225 52.391 C1.408 49.566 0
				46.113 0 42.029 C0 37.906 1.398 34.433 4.195 31.609 C6.992 28.787 10.449 27.375
				14.562 27.375 C18.636 27.375 22.083 28.797 24.9 31.641 C27.717 34.485 29.125
				37.947 29.125 42.029 zM28 42.029 C28 38.22 26.709 35.013 24.131 32.408
				C21.551 29.803 18.361 28.5 14.563 28.5 C10.765 28.5 7.575 29.803 4.995 32.408
				C2.417 35.013 1.126 38.221 1.126 42.029 C1.126 45.799 2.427 48.986 5.024 51.592
				C7.626 54.197 10.805 55.5 14.563 55.5 C18.321 55.5 21.501 54.197 24.1
				51.592 C26.699 48.987 28 45.799 28 42.029 zM17.875 0 L17.875 17.77 L13.859 12.731
				L13.92 27.317 L15.125 27.376 L15.125 16.449 L19.199 21.07 L19.199 0 z"></path>
            </g>
        </svg>

    </g>
    <g>
        <svg viewBox="0 0 400 400" id="_1.G-G-GPUYK-----X" width="400px" height="400px">
            <text x="160px" y="320px"
                  style="fill:rgb(255,255,255);stroke:rgb(255,255,255);font-size:110;font-family:Arial">K
            </text>
        </svg>

    </g>
</svg>