<?xml version="1.0"?>
<!-- SVG content generated using Symbology Configuration Management System (SCMS) -->
<!-- Systematic Software Engineering Ltd. - www.systematic.co.uk - do not remove  -->
<svg xmlns="http://www.w3.org/2000/svg" xmlns:xlink="http://www.w3.org/1999/xlink" id="G*OPFE----****X" width="400px"
     height="400px" viewBox="0 0 400 400" preserveAspectRatio="xMidYMid meet" zoomAndPan="magnify" version="1.1"
     contentScriptType="application/ecmascript" contentStyleType="text/css">
    <g>
        <svg viewBox="0 0 400 400" id="_0.G-O-FE--------X" width="400px" height="400px"
             preserveAspectRatio="xMidYMid meet" zoomAndPan="magnify" version="1.1"
             contentScriptType="application/ecmascript" contentStyleType="text/css">
            <line x1="200" y1="50" x2="200" y2="350" transform="matrix(1 0 0 1 0 0)"
                  style="stroke:rgb(255,255,255);stroke-width:5;stroke-dasharray:27"/>
            <line x1="351" y1="50" x2="49" y2="350" transform="matrix(1 0 0 1 0 0)"
                  style="stroke:rgb(255,255,255);stroke-width:5;stroke-dasharray:27"/>
            <line x1="50" y1="50" x2="350" y2="350" transform="matrix(1 0 0 1 0 0)"
                  style="stroke:rgb(255,255,255);stroke-width:5;stroke-dasharray:27"/>
            <polyline points="175,175 150,225 110,175 89,225 50,175" transform="matrix(1 0 0 1 0 0)"
                      style="fill:none;stroke:rgb(255,255,255);stroke-width:5;stroke-dasharray:15"/>
            <polyline points="225,225 250,175 285,225 311,175 350,225" transform="matrix(1 0 0 1 0 0)"
                      style="fill:none;stroke:rgb(255,255,255);stroke-width:5;stroke-dasharray:15"/>
        </svg>

    </g>
</svg>
