<?xml version="1.0"?>
<!DOCTYPE svg PUBLIC "-//W3C//DTD SVG 1.1//EN" "http://www.w3.org/Graphics/SVG/1.1/DTD/svg11.dtd" >
<!-- SVG content generated using Symbology Configuration Management System (SCMS) -->
<!-- Systematic Software Engineering Ltd. - www.systematic.co.uk - do not remove  -->
<svg id="G*OPFE----****X" width="400px" height="400px" viewBox="0 0 400 400">
    <g>
        <svg viewBox="0 0 400 400" id="_0.G-O-FE--------X" width="400px" height="400px">
            <line x1="200" y1="50" x2="200" y2="350" transform="matrix(1 0 0 1 0 0)"
                  style="stroke:rgb(0,0,0);stroke-width:3"></line>
            <line x1="351" y1="50" x2="49" y2="350" transform="matrix(1 0 0 1 0 0)"
                  style="stroke:rgb(0,0,0);stroke-width:3"></line>
            <line x1="50" y1="50" x2="350" y2="350" transform="matrix(1 0 0 1 0 0)"
                  style="stroke:rgb(0,0,0);stroke-width:3"></line>
            <polyline points="175,175 150,225 110,175 89,225 50,175" transform="matrix(1 0 0 1 0 0)"
                      style="fill:none;stroke:rgb(0,0,0);stroke-width:2"></polyline>
            <polyline points="225,225 250,175 285,225 311,175 350,225" transform="matrix(1 0 0 1 0 0)"
                      style="fill:none;stroke:rgb(0,0,0);stroke-width:2"></polyline>
        </svg>

    </g>
</svg>