<?xml version="1.0"?>
<!DOCTYPE svg PUBLIC "-//W3C//DTD SVG 1.1//EN" "http://www.w3.org/Graphics/SVG/1.1/DTD/svg11.dtd" >
<!-- SVG content generated using Symbology Configuration Management System (SCMS) -->
<!-- Systematic Software Engineering Ltd. - www.systematic.co.uk - do not remove  -->
<svg id="G*OPEP----****X" width="400px" height="400px" viewBox="0 0 400 400">
    <g>
        <svg viewBox="0 0 400 400" id="_0.G-O-E---------W" width="400px" height="400px">
            <polyline points="50,300 100,250 150,300 200,250 250,300 300,250 350,300"
                      style="stroke-linecap:square;fill:none;stroke:rgb(0,0,0);stroke-width:10"></polyline>
        </svg>

    </g>
    <g>
        <svg viewBox="0 0 400 400" id="_1.G-O-EP--------X" width="400px" height="400px">
            <polygon points="220,200 180,200 151.716,171.716 151.716,131.716 180,103.432 220,103.432 248.284,131.716
			248.284,171.716" style="fill:rgb(0,0,0);stroke:rgb(0,0,0);stroke-width:5"></polygon>
            <line x1="200" y1="200" x2="200" y2="250"
                  transform="matrix(1 0 0 1 0 0) translate(200 210) scale(1 1) translate(-200 -210)"
                  style="fill:none;stroke:rgb(0,0,0);stroke-width:10"></line>
            <polygon points="75,275 50,250 50,200 75,200 75,240 92,257" transform="matrix(1 0 0 1 0 0)"
                     style="fill:rgb(0,0,0);stroke:rgb(0,0,0);stroke-width:5"></polygon>
            <polygon points="325,275 350,250 350,200 325,200 325,240 308,257" transform="matrix(1 0 0 1 0 0)"
                     style="fill:rgb(0,0,0);stroke:rgb(0,0,0);stroke-width:5"></polygon>
        </svg>

    </g>
</svg>