<?xml version="1.0"?>
<!DOCTYPE svg PUBLIC "-//W3C//DTD SVG 1.1//EN" "http://www.w3.org/Graphics/SVG/1.1/DTD/svg11.dtd" >
<!-- SVG content generated using Symbology Configuration Management System (SCMS) -->
<!-- Systematic Software Engineering Ltd. - www.systematic.co.uk - do not remove  -->
<svg id="G*SPPSI---****X" width="400px" height="400px" viewBox="0 0 400 400">
    <g>
        <svg viewBox="0 0 400 400" id="_0.GP------------X" width="400px" height="400px">
            <rect x="130" y="100" width="140" height="180" style="fill:none;stroke:rgb(0,0,0);stroke-width:5"></rect>
            <polyline points="130,281 200,375 270,281" transform="matrix(1 0 0 1 0 0)"
                      style="fill:none;stroke:rgb(0,0,0);stroke-width:5"></polyline>
        </svg>

    </g>
    <g>
        <svg viewBox="0 0 400 400" id="_1.GSP-----------X" width="400px" height="400px">
            <line x1="130" y1="250" x2="270" y2="250" transform="matrix(1 0 0 1 0 0)"
                  style="fill:none;stroke:rgb(0,0,0);stroke-width:5"></line>
        </svg>

    </g>
    <g>
        <svg viewBox="0 0 400 400" id="_2.G-S-PSI-------X" width="400px" height="400px">
            <circle cx="200" cy="175" r="40" transform="matrix(1 0 0 1 0 0)"
                    style="fill:none;stroke:rgb(0,0,0);stroke-width:5"></circle>
            <line x1="200" y1="135" x2="200" y2="115" transform="matrix(1 0 0 1 0 0)"
                  style="fill:none;stroke:rgb(0,0,0);stroke-width:5"></line>
            <line x1="200" y1="215" x2="200" y2="235" transform="matrix(1 0 0 1 0 0)"
                  style="fill:none;stroke:rgb(0,0,0);stroke-width:5"></line>
            <line x1="240" y1="175" x2="260" y2="175" transform="matrix(1 0 0 1 0 0)"
                  style="fill:none;stroke:rgb(0,0,0);stroke-width:5"></line>
            <line x1="160" y1="175" x2="140" y2="175" transform="matrix(1 0 0 1 0 0)"
                  style="fill:none;stroke:rgb(0,0,0);stroke-width:5"></line>
            <line x1="170" y1="150" x2="155" y2="135" transform="matrix(1 0 0 1 0 0)"
                  style="fill:none;stroke:rgb(0,0,0);stroke-width:5"></line>
            <line x1="230" y1="150" x2="245" y2="135" transform="matrix(1 0 0 1 0 0)"
                  style="fill:none;stroke:rgb(0,0,0);stroke-width:5"></line>
            <line x1="230" y1="200" x2="245" y2="215" transform="matrix(1 0 0 1 0 0)"
                  style="fill:none;stroke:rgb(0,0,0);stroke-width:5"></line>
            <line x1="170" y1="200" x2="155" y2="215" transform="matrix(1 0 0 1 0 0)"
                  style="fill:none;stroke:rgb(0,0,0);stroke-width:5"></line>
        </svg>

    </g>
</svg>